<?xml version="1.0" encoding="utf-8"?>
<!-- Generator: Adobe Illustrator 27.5.0, SVG Export Plug-In . SVG Version: 6.00 Build 0)  -->
<svg version="1.1" id="레이어_1" xmlns="http://www.w3.org/2000/svg" xmlns:xlink="http://www.w3.org/1999/xlink" x="0px"
	 y="0px" viewBox="0 0 390 70" style="enable-background:new 0 0 390 70;" xml:space="preserve">
<style type="text/css">
	.st0{fill:#0042EC;}
	.st1{fill:#231815;}
</style>
<g>
	<g>
		<polygon class="st0" points="55.55,40.63 67.96,53.05 21.85,53.05 0.06,14.59 15.44,14.59 29.5,14.59 42.84,27.93 23.73,27.93 
			32.6,40.63 		"/>
		<polygon class="st0" points="97.04,41.35 86.59,30.89 51.64,30.89 90.75,70 75.87,41.35 		"/>
		<polygon class="st0" points="86.24,25.05 75.79,14.59 70.29,14.59 35.34,14.59 45.8,25.05 		"/>
	</g>
	<g>
		<path class="st1" d="M133.81,54.83c-11.22,0-19.17-9.14-17.54-20.41C117.79,23.25,128.34,14,139.56,14
			c7.78,0,13.53,4.28,16.24,10.43c-3.72,1.8-4,1.97-8.12,3.83c-1.41-3.44-4.96-5.81-9.3-5.81c-6.6,0-12.74,5.41-13.65,11.95
			c-0.9,6.6,3.67,11.96,10.26,11.96c4.51,0,8.74-2.42,11.39-6.26c3.5,1.97,3.67,2.2,6.99,3.83
			C149.03,50.43,141.76,54.83,133.81,54.83z"/>
		<path class="st1" d="M153.55,54.71l23.91-40.2h8.91l12.29,40.2h-8.57l-2.65-8.91h-20.36l-5.53,8.91H153.55z M180.95,22.06
			l-8.97,15.56h13.36l-4.34-15.56H180.95z"/>
		<path class="st1" d="M227.93,39.83l9.13,14.94h-10.83l-8.12-14.49h-4.34l-2.03,14.49h-8.91l5.7-40.32h18.16
			c10.09,0,13.14,6.37,12.24,12.91c-0.73,5.47-4.45,10.99-11.33,12.46H227.93z M216.48,21.33l-1.75,12.12h6.88
			c4.28,0,7.89-0.96,8.63-6.09c0.73-5.25-2.71-6.03-6.88-6.03H216.48z"/>
		<path class="st1" d="M249.25,14.45h17.37c10.38,0,17.42,6.6,15.45,19.91c-1.64,11.67-8.85,20.36-21.15,20.36h-17.37L249.25,14.45z
			 M253.48,47.27h7.89c5.08,0,10.54-3.16,11.73-12.07c1.18-8.12-1.02-13.31-9.76-13.31h-6.32L253.48,47.27z"/>
		<path class="st1" d="M311.05,47.21l-1.07,7.5h-8.57l5.69-40.43h29.38l-1.02,7.44h-20.81l-1.3,9.08h18.38l-1.13,7.84h-18.38
			L311.05,47.21z"/>
		<path class="st1" d="M341.56,14.45h8.85l-5.7,40.26h-8.85L341.56,14.45z"/>
		<path class="st1" d="M367.33,21.89h-12.8l1.07-7.39h34.34l-1.07,7.44h-12.69l-4.62,32.76h-8.85L367.33,21.89z"/>
	</g>
</g>
</svg>
