<svg width="900" height="681" viewBox="0 0 900 681" fill="none" xmlns="http://www.w3.org/2000/svg">
<g clip-path="url(#clip0_1185_182)">
<path d="M138.54 230.28C157.38 172.13 321.86 179.22 505.76 246.1C689.67 312.98 823.42 414.32 804.48 472.47" stroke="#A3A5FD" stroke-width="2" stroke-miterlimit="10"/>
<path d="M183.46 594.58C150.37 545.2 250.39 401.5 406.88 273.75C563.37 146 717.06 82.36 750.17 131.73" stroke="#91B5F8" stroke-width="2" stroke-miterlimit="10"/>
<g opacity="0.9">
<path d="M552.83 15.21L535.44 3.93999C534.83 3.45999 534.19 3.01999 533.53 2.61999C530.79 0.979987 527.67 0.0699867 524.47 -1.32639e-05C521.27 -0.0800133 518.11 0.679987 515.29 2.18999L282.65 126.81C279.7 128.39 277.24 130.74 275.52 133.61C273.8 136.48 272.89 139.76 272.89 143.11V605.99C272.89 609.19 273.72 612.33 275.29 615.11C276.87 617.89 279.14 620.22 281.88 621.86C282.23 622.07 282.59 622.27 282.96 622.46L298.58 632.75L547.83 502.49C550.95 500.82 553.56 498.33 555.38 495.29C557.2 492.25 558.16 488.77 558.16 485.23L552.83 15.22V15.21Z" fill="url(#paint0_linear_1185_182)"/>
<path d="M533.03 13.75L300.4 138.36C297.45 139.94 294.98 142.29 293.27 145.16C291.55 148.03 290.64 151.31 290.64 154.66V617.54C290.64 620.74 291.47 623.88 293.04 626.66C294.62 629.44 296.89 631.77 299.63 633.41C302.37 635.05 305.49 635.95 308.69 636.03C311.89 636.11 315.05 635.35 317.86 633.84L550.49 509.23C553.44 507.65 555.91 505.3 557.63 502.43C559.35 499.56 560.25 496.27 560.25 492.93V30.06C560.25 26.86 559.42 23.72 557.85 20.94C556.27 18.16 554.01 15.84 551.26 14.19C548.52 12.55 545.4 11.64 542.2 11.57C539 11.49 535.84 12.24 533.03 13.75Z" fill="#9CBCF4"/>
<path d="M436.969 114.37L409.539 129.06C408.799 129.45 408.189 130.04 407.759 130.76C407.329 131.48 407.109 132.3 407.109 133.14V188.06C407.109 188.86 407.309 189.65 407.709 190.34C408.099 191.04 408.669 191.62 409.359 192.03C410.049 192.44 410.829 192.67 411.629 192.68C412.429 192.7 413.219 192.51 413.919 192.13L441.349 177.44C442.089 177.05 442.709 176.46 443.139 175.74C443.569 175.02 443.799 174.2 443.799 173.36V118.44C443.799 117.64 443.589 116.85 443.199 116.16C442.799 115.47 442.239 114.88 441.549 114.47C440.859 114.06 440.079 113.83 439.279 113.82C438.479 113.8 437.689 113.99 436.979 114.37H436.969Z" fill="#F7F7F7"/>
<path d="M378.689 525.56C379.019 510.34 366.919 503.37 353.969 511.63C346.899 516.26 341.029 522.5 336.819 529.83C332.609 537.16 330.189 545.38 329.749 553.82C329.159 569.12 341.179 576.02 354.469 567.83C361.689 563.34 367.679 557.12 371.899 549.75C376.129 542.37 378.459 534.07 378.679 525.57L378.689 525.56Z" fill="white"/>
<path d="M378.689 484.93C379.019 469.71 366.919 462.73 353.969 470.99C346.899 475.62 341.029 481.86 336.819 489.19C332.609 496.52 330.189 504.73 329.749 513.17C329.159 528.47 341.179 535.39 354.469 527.19C361.689 522.7 367.679 516.48 371.899 509.11C376.129 501.73 378.459 493.42 378.679 484.93H378.689Z" fill="#74A9F5"/>
<path d="M508.6 477.4L518.4 472.16C519.13 471.76 519.74 471.17 520.17 470.45C520.6 469.73 520.83 468.92 520.84 468.08V384.61C520.84 383.81 520.63 383.03 520.24 382.33C519.84 381.64 519.28 381.06 518.59 380.65C517.91 380.24 517.13 380.01 516.33 379.99C515.53 379.97 514.74 380.16 514.04 380.53L504.28 385.77C503.54 386.16 502.92 386.75 502.49 387.47C502.06 388.19 501.83 389.01 501.83 389.85V473.32C501.83 474.11 502.04 474.9 502.44 475.59C502.83 476.28 503.4 476.86 504.08 477.27C504.76 477.68 505.54 477.91 506.33 477.93C507.13 477.95 507.91 477.77 508.62 477.4H508.6Z" fill="#E9EFFD"/>
<path d="M504.269 190.43C503.529 190.82 502.909 191.41 502.479 192.13C502.049 192.85 501.819 193.67 501.819 194.51V343.53C501.819 344.33 502.029 345.11 502.419 345.81C502.809 346.5 503.379 347.08 504.069 347.49C504.759 347.9 505.529 348.12 506.329 348.14C507.129 348.16 507.919 347.97 508.619 347.6L518.419 342.36C519.149 341.96 519.759 341.37 520.189 340.65C520.619 339.93 520.849 339.11 520.859 338.28V189.27C520.859 188.47 520.649 187.68 520.259 186.99C519.869 186.29 519.299 185.71 518.609 185.3C517.919 184.89 517.139 184.66 516.339 184.64C515.539 184.62 514.749 184.81 514.049 185.18L504.269 190.43Z" fill="#E9EFFD"/>
</g>
<path d="M750.17 131.73C783.29 181.11 683.22 324.75 526.75 452.56C370.29 580.37 216.57 643.95 183.46 594.58" stroke="#91B5F8" stroke-width="2" stroke-miterlimit="10"/>
<path d="M804.48 472.48C785.64 530.63 621.2 523.54 437.29 456.66C253.38 389.78 119.63 288.42 138.54 230.29" stroke="#A3A5FD" stroke-width="2" stroke-miterlimit="10"/>
<path d="M721.14 262.52C730.84 262.52 738.69 254.66 738.69 244.97C738.69 235.28 730.83 227.42 721.14 227.42C711.45 227.42 703.59 235.28 703.59 244.97C703.59 254.66 711.45 262.52 721.14 262.52Z" fill="#91B5F8" stroke="white" stroke-width="3" stroke-miterlimit="10"/>
<path d="M235.83 374.35C245.52 374.35 253.38 366.49 253.38 356.8C253.38 347.11 245.52 339.25 235.83 339.25C226.14 339.25 218.28 347.11 218.28 356.8C218.28 366.49 226.14 374.35 235.83 374.35Z" fill="#A3A5FD" stroke="white" stroke-width="2" stroke-miterlimit="10"/>
<path d="M708.34 520.81C713.56 520.81 717.78 516.58 717.78 511.37C717.78 506.16 713.55 501.93 708.34 501.93C703.13 501.93 698.9 506.16 698.9 511.37C698.9 516.58 703.13 520.81 708.34 520.81Z" fill="#A3A5FD" stroke="white" stroke-width="2" stroke-miterlimit="10"/>
<path d="M206.03 204.25C212.53 204.25 217.8 198.98 217.8 192.48C217.8 185.98 212.53 180.71 206.03 180.71C199.53 180.71 194.26 185.98 194.26 192.48C194.26 198.98 199.53 204.25 206.03 204.25Z" fill="#91B5F8" stroke="white" stroke-width="2" stroke-miterlimit="10"/>
<path d="M851.43 19.22C834.23 19.22 808.67 46.09 790.88 84.48C773.09 122.87 769.09 159.83 780.28 172.86C781.6 174.43 783.23 175.69 785.08 176.56C789.52 178.62 794.89 178.1 800.75 175.44C816.94 168.06 836.88 144.21 851.54 112.56C866.2 80.91 871.49 50.28 866.66 33.16C864.91 26.97 861.82 22.56 857.37 20.49C855.5 19.64 853.47 19.2 851.42 19.22H851.43Z" fill="#FFE550" stroke="#FFA200" stroke-width="5" stroke-linecap="round" stroke-linejoin="round"/>
<path d="M885.589 33.54C890.039 35.6 893.119 40.03 894.879 46.22C899.719 63.34 894.419 93.97 879.759 125.62C865.099 157.27 845.159 181.12 828.969 188.49C823.079 191.16 817.739 191.67 813.289 189.67L785.029 176.59C789.469 178.65 794.839 178.13 800.699 175.47C816.889 168.09 836.829 144.24 851.489 112.59C866.149 80.94 871.449 50.31 866.609 33.19C864.859 27 861.769 22.59 857.319 20.52L885.589 33.54Z" fill="#FFE550" stroke="#FFA200" stroke-width="5" stroke-linecap="round" stroke-linejoin="round"/>
<path d="M808.859 92.7701C821.689 65.0701 838.809 44.9101 849.919 43.3201C849.119 41.9701 847.939 40.8901 846.529 40.2001C845.359 39.6701 844.069 39.4401 842.789 39.5501C831.709 40.2601 814.079 60.7401 800.929 89.1001C787.779 117.46 783.579 144.16 790.189 153.07C790.949 154.11 791.959 154.95 793.119 155.51C794.549 156.15 796.139 156.35 797.689 156.08C791.719 146.56 796.029 120.46 808.859 92.7601V92.7701Z" fill="#FFB700" stroke="#FFB700" stroke-width="4.5" stroke-miterlimit="10"/>
<path d="M803.299 154.02C814.049 148.02 827.939 129.99 838.769 106.61C849.599 83.23 854.369 60.99 851.999 48.92C851.659 46.95 850.969 45.06 849.959 43.34C838.849 44.94 821.699 65.1 808.899 92.79C796.089 120.48 791.759 146.58 797.729 156.09C799.699 155.74 801.579 155.04 803.299 154.02Z" stroke="#FFB700" stroke-width="4.5" stroke-miterlimit="10"/>
<path d="M177.28 501.69C174.7 484.68 144.19 463.53 103.53 451.83C62.8797 440.13 25.8297 441.8 14.5597 454.84C13.2097 456.37 12.2097 458.18 11.6397 460.14C10.2897 464.85 11.6397 470.08 15.1697 475.44C24.9397 490.31 51.5597 506.37 85.0697 516.02C118.58 525.67 149.67 526.23 165.84 518.82C171.73 516.14 175.6 512.41 176.95 507.71C177.49 505.75 177.59 503.69 177.27 501.68L177.28 501.69Z" fill="#FFE550" stroke="#FFA200" stroke-width="5" stroke-linecap="round" stroke-linejoin="round"/>
<path d="M168.31 537.65C166.96 542.36 163.06 546.08 157.2 548.76C141.04 556.17 109.94 555.6 76.4401 545.95C42.9301 536.3 16.3001 520.25 6.54009 505.44C3.01009 500.06 1.68009 494.84 3.01009 490.13L11.6301 460.22C10.2801 464.93 11.6301 470.16 15.1601 475.52C24.9301 490.39 51.5501 506.45 85.0601 516.1C118.57 525.75 149.66 526.31 165.83 518.9C171.72 516.22 175.59 512.49 176.94 507.79L168.31 537.65Z" fill="#FFE550" stroke="#FFA200" stroke-width="5" stroke-linecap="round" stroke-linejoin="round"/>
<path d="M98.0999 470.86C127.44 479.31 149.97 493.15 153.26 503.82C154.47 502.82 155.36 501.49 155.83 499.99C156.17 498.75 156.2 497.44 155.9 496.19C153.54 485.35 130.58 471.04 100.57 462.4C70.5599 453.76 43.4899 453.66 35.6999 461.56C34.7799 462.47 34.1099 463.59 33.7299 464.82C33.3299 466.33 33.3699 467.93 33.8699 469.42C42.2799 462.13 68.6699 462.4 98.0999 470.84V470.86Z" fill="#FFB700" stroke="#FFB700" stroke-width="4.5" stroke-miterlimit="10"/>
<path d="M36.6598 474.69C44.2398 484.39 64.1698 495.36 88.9398 502.5C113.71 509.63 136.41 510.94 147.99 506.75C149.88 506.12 151.64 505.15 153.19 503.89C149.91 493.15 127.37 479.32 98.0298 470.93C68.6898 462.54 42.2498 462.22 33.7598 469.57C34.4098 471.44 35.3898 473.18 36.6398 474.7L36.6598 474.69Z" stroke="#FFB700" stroke-width="4.5" stroke-miterlimit="10"/>
<path d="M770.699 374.76L786.369 395.6C787.039 396.5 787.919 397.22 788.919 397.72C789.919 398.22 791.029 398.48 792.149 398.48C793.269 398.48 794.369 398.22 795.379 397.72C796.389 397.22 797.249 396.49 797.929 395.6L813.589 374.76H770.709H770.699Z" fill="#5991F6"/>
<path d="M820.5 366.39L817.31 370.64L798.919 395.1C798.129 396.15 797.11 397 795.93 397.59C794.76 398.18 793.46 398.48 792.14 398.48C790.82 398.48 789.529 398.17 788.349 397.59C787.169 397 786.149 396.15 785.359 395.1L766.969 370.64L763.77 366.39H820.49H820.5Z" stroke="#126FF2" stroke-width="4" stroke-miterlimit="10" stroke-linecap="round"/>
<path d="M792.149 398.61V428.55" stroke="#126FF2" stroke-width="4" stroke-miterlimit="10" stroke-linecap="round"/>
<path d="M773.06 428.69H811.24" stroke="#126FF2" stroke-width="4" stroke-miterlimit="10" stroke-linecap="round"/>
<path d="M152.14 202.39L92.0004 198.2C88.2604 197.94 85.0204 200.76 84.7604 204.49L80.6104 263.95C80.3504 267.69 83.1704 270.93 86.9004 271.19L147.04 275.39C150.78 275.65 154.02 272.83 154.28 269.1L158.43 209.64C158.69 205.9 155.87 202.66 152.14 202.4V202.39Z" fill="white" stroke="#1673ED" stroke-width="4.8" stroke-linecap="round" stroke-linejoin="round"/>
<path d="M144.47 262.18L147.75 215.12C147.86 213.61 146.72 212.31 145.22 212.21L97.4803 208.88C95.9803 208.77 94.6703 209.91 94.5703 211.42L91.2903 258.48C91.1903 259.99 92.3203 261.29 93.8203 261.39L141.56 264.72C143.07 264.82 144.37 263.69 144.47 262.18Z" fill="#5991F6"/>
<path d="M139.01 207.02L139.54 198.39C139.77 193.86 138.22 189.42 135.21 186.02C132.2 182.62 127.98 180.54 123.46 180.22C118.93 179.9 114.46 181.37 111.01 184.31C107.56 187.25 105.4 191.43 104.99 195.95L104.45 204.59" stroke="#1673ED" stroke-width="4.8" stroke-linecap="round" stroke-linejoin="round"/>
<path d="M257.35 115.39L176.12 127.16L180.39 133.41L192.09 132.13L197.03 131.46L196.96 131.59L215.91 129.51C221.01 128.17 256.12 124.26 259.26 121.82C261.41 120.13 259.92 117.74 257.34 115.39H257.35Z" fill="#5991F6"/>
<path d="M197.64 130.47L216.16 128.11L193.3 153.46L186.62 151.07L197.64 130.47Z" fill="#5991F6"/>
<path d="M257.35 115.39C254.72 113.18 251.94 111.15 249.04 109.31C246.33 107.45 242.99 106.79 239.74 106.32C220.51 103.48 205.73 112.21 188.21 119.75L177.8 103.58L162.13 106.95L176.1 127.18L180.39 133.41L180.58 133.68L192.09 132.13L196.96 131.59L186.61 151.07L192.33 153.53C192.33 153.53 215.08 129.98 215.31 129.71C215.49 129.6 215.7 129.52 215.91 129.47C221.01 128.13 256.12 124.22 259.26 121.78C261.41 120.11 259.92 117.72 257.34 115.38L257.35 115.39Z" stroke="#1673ED" stroke-width="4.8" stroke-linecap="round" stroke-linejoin="round"/>
<path d="M132.96 137.5L127.5 138.55" stroke="#1673ED" stroke-width="4.8" stroke-linecap="round" stroke-linejoin="round"/>
<path d="M161.52 132.25L148.35 134.77" stroke="#1673ED" stroke-width="4.8" stroke-linecap="round" stroke-linejoin="round"/>
<path d="M636.54 47.16C636.54 47.16 620.93 37.68 620.42 37.38C617.63 35.71 614.45 34.79 611.19 34.71C607.93 34.63 604.72 35.4 601.84 36.94H601.89L364.92 163.86C361.91 165.47 359.4 167.87 357.65 170.81C355.9 173.74 354.98 177.1 354.99 180.51V651.97C354.99 655.22 355.84 658.42 357.44 661.25C359.05 664.08 380.21 677.9 380.21 677.9L635.04 546.49C638.2 544.78 640.84 542.26 642.68 539.17C644.53 536.09 645.51 532.57 645.53 528.98L636.53 47.15L636.54 47.16Z" fill="url(#paint1_linear_1185_182)"/>
<path d="M617.971 46.71L381.001 173.65C377.991 175.26 375.481 177.65 373.731 180.58C371.981 183.5 371.051 186.85 371.051 190.26V661.76C371.051 665.02 371.901 668.22 373.501 671.05C375.111 673.88 377.421 676.25 380.211 677.92C383.001 679.59 386.181 680.51 389.441 680.59C392.701 680.67 395.921 679.9 398.791 678.36L635.761 551.44C638.761 549.83 641.271 547.43 643.021 544.51C644.771 541.58 645.691 538.24 645.691 534.83V63.32C645.691 60.06 644.851 56.86 643.241 54.03C641.641 51.2 639.321 48.83 636.531 47.16C633.741 45.49 630.561 44.57 627.301 44.49C624.041 44.41 620.831 45.18 617.961 46.71H617.971Z" fill="#3279ED"/>
<path d="M523.13 151.19L495.19 166.15C494.44 166.55 493.81 167.15 493.37 167.88C492.93 168.61 492.7 169.45 492.7 170.3V226.24C492.7 227.06 492.91 227.86 493.31 228.57C493.71 229.28 494.29 229.87 494.99 230.29C495.69 230.71 496.48 230.94 497.3 230.96C498.11 230.98 498.92 230.79 499.64 230.4L527.65 215.42C528.4 215.02 529.03 214.42 529.46 213.69C529.9 212.96 530.13 212.13 530.13 211.27V155.31C530.13 154.49 529.92 153.68 529.52 152.96C529.11 152.24 528.53 151.65 527.82 151.23C527.11 150.81 526.31 150.58 525.49 150.57C524.67 150.56 523.86 150.76 523.14 151.16L523.13 151.19Z" fill="#9EB4EF"/>
<path d="M521.13 150.19L493.19 165.15C492.44 165.55 491.81 166.15 491.37 166.88C490.93 167.61 490.7 168.45 490.7 169.3V225.24C490.7 226.06 490.91 226.86 491.31 227.57C491.71 228.28 492.29 228.87 492.99 229.29C493.69 229.71 494.48 229.94 495.3 229.96C496.11 229.98 496.92 229.79 497.64 229.4L525.65 214.42C526.4 214.02 527.03 213.42 527.46 212.69C527.9 211.96 528.13 211.13 528.13 210.27V154.31C528.13 153.49 527.92 152.68 527.52 151.96C527.11 151.24 526.53 150.65 525.82 150.23C525.11 149.81 524.31 149.58 523.49 149.57C522.67 149.56 521.86 149.76 521.14 150.16L521.13 150.19Z" fill="#F7F7F7"/>
<path d="M462.77 570.05C463.1 554.54 450.74 547.43 437.52 555.85C430.32 560.57 424.34 566.92 420.06 574.39C415.77 581.86 413.31 590.23 412.86 598.82C412.26 614.47 424.5 621.45 438.09 613.1C445.44 608.52 451.55 602.2 455.86 594.68C460.17 587.17 462.55 578.7 462.78 570.04L462.77 570.05Z" fill="#91B5F8"/>
<path d="M462.77 528.66C463.1 513.15 450.74 506.04 437.52 514.46C430.32 519.18 424.34 525.54 420.06 533C415.77 540.47 413.31 548.84 412.86 557.43C412.26 573.09 424.5 580.06 438.09 571.71C445.44 567.13 451.55 560.81 455.86 553.29C460.17 545.78 462.55 537.31 462.78 528.65L462.77 528.66Z" fill="#004DEF"/>
<path d="M593.701 519.59L603.661 514.26C604.411 513.86 605.041 513.26 605.481 512.53C605.921 511.8 606.151 510.96 606.151 510.11V425.1C606.151 424.29 605.941 423.48 605.541 422.78C605.141 422.07 604.561 421.48 603.861 421.06C603.161 420.64 602.371 420.41 601.551 420.39C600.741 420.37 599.931 420.56 599.211 420.95L589.241 426.3C588.491 426.7 587.861 427.3 587.431 428.03C586.991 428.76 586.761 429.6 586.761 430.45V515.47C586.761 516.28 586.971 517.08 587.371 517.79C587.771 518.5 588.351 519.09 589.051 519.51C589.751 519.93 590.541 520.16 591.361 520.18C592.171 520.2 592.981 520.01 593.701 519.62V519.59Z" fill="#AECEFC"/>
<path d="M589.251 227.28C588.501 227.68 587.871 228.28 587.431 229.01C586.991 229.74 586.761 230.58 586.761 231.43V383.22C586.761 384.04 586.971 384.84 587.371 385.55C587.771 386.26 588.351 386.85 589.051 387.27C589.751 387.69 590.541 387.92 591.361 387.94C592.181 387.96 592.981 387.77 593.701 387.38L603.661 382.03C604.411 381.63 605.041 381.03 605.481 380.3C605.921 379.57 606.151 378.73 606.151 377.88V226.08C606.151 225.27 605.941 224.47 605.541 223.76C605.141 223.05 604.561 222.46 603.861 222.04C603.161 221.62 602.371 221.39 601.551 221.37C600.741 221.35 599.931 221.54 599.221 221.93L589.251 227.26V227.28Z" fill="#AECEFC"/>
<path d="M596.411 521.12L606.371 515.79C607.121 515.39 607.751 514.79 608.191 514.06C608.631 513.33 608.861 512.49 608.861 511.64V426.63C608.861 425.82 608.651 425.01 608.251 424.31C607.851 423.6 607.271 423.01 606.571 422.59C605.871 422.17 605.081 421.94 604.261 421.92C603.451 421.9 602.641 422.09 601.921 422.48L591.951 427.83C591.201 428.23 590.571 428.83 590.141 429.56C589.701 430.29 589.471 431.13 589.471 431.98V517C589.471 517.81 589.681 518.61 590.081 519.32C590.481 520.03 591.061 520.62 591.761 521.04C592.461 521.46 593.251 521.69 594.071 521.71C594.881 521.73 595.691 521.54 596.411 521.15V521.12Z" fill="#E9EFFD"/>
<path d="M591.961 228.81C591.211 229.21 590.581 229.81 590.141 230.54C589.701 231.27 589.471 232.11 589.471 232.96V384.75C589.471 385.57 589.681 386.37 590.081 387.08C590.481 387.79 591.061 388.38 591.761 388.8C592.461 389.22 593.251 389.45 594.071 389.47C594.891 389.49 595.691 389.3 596.411 388.91L606.371 383.56C607.121 383.16 607.751 382.56 608.191 381.83C608.631 381.1 608.861 380.26 608.861 379.41V227.61C608.861 226.8 608.651 226 608.251 225.29C607.851 224.58 607.271 223.99 606.571 223.57C605.871 223.15 605.081 222.92 604.261 222.9C603.451 222.88 602.641 223.07 601.931 223.46L591.961 228.79V228.81Z" fill="#E9EFFD"/>
<path d="M690.429 583.4L644.929 579.77L642.199 542.23L699.079 546.77L690.439 583.4H690.429Z" fill="white"/>
<path d="M691.349 583.26L645.849 579.62L643.119 542.09L699.999 546.62L691.359 583.26H691.349Z" stroke="#1673ED" stroke-width="5" stroke-linecap="round" stroke-linejoin="round"/>
<path d="M691.349 583.26L645.849 579.62L643.119 542.09L699.999 546.62L691.359 583.26H691.349Z" stroke="#1673ED" stroke-width="5" stroke-linecap="round" stroke-linejoin="round"/>
<path d="M682.039 573.07L656.679 571.05C656.119 571 655.589 570.76 655.199 570.36C654.809 569.96 654.569 569.43 654.529 568.87L653.529 555.1C653.509 554.78 653.549 554.45 653.659 554.15C653.769 553.85 653.939 553.56 654.159 553.33C654.379 553.09 654.649 552.91 654.939 552.78C655.239 552.65 655.559 552.58 655.879 552.59H656.069L685.569 554.91C685.909 554.94 686.239 555.04 686.539 555.2C686.839 555.37 687.089 555.59 687.299 555.87C687.499 556.14 687.639 556.46 687.709 556.79C687.779 557.12 687.769 557.47 687.689 557.8L684.509 571.23C684.389 571.74 684.099 572.2 683.679 572.53C683.269 572.86 682.749 573.04 682.219 573.04L682.039 573.07Z" fill="#5991F6"/>
<path d="M652.42 594.82C655.13 594.82 657.33 592.62 657.33 589.91C657.33 587.2 655.13 585 652.42 585C649.71 585 647.51 587.2 647.51 589.91C647.51 592.62 649.71 594.82 652.42 594.82Z" stroke="#1673ED" stroke-width="5" stroke-linecap="round" stroke-linejoin="round"/>
<path d="M683.24 597.28C685.95 597.28 688.15 595.08 688.15 592.37C688.15 589.66 685.95 587.46 683.24 587.46C680.53 587.46 678.33 589.66 678.33 592.37C678.33 595.08 680.53 597.28 683.24 597.28Z" stroke="#1673ED" stroke-width="5" stroke-linecap="round" stroke-linejoin="round"/>
<path d="M628.35 528.14L641.43 529.18L643.11 542.09" stroke="#1673ED" stroke-width="5" stroke-linecap="round" stroke-linejoin="round"/>
</g>
<defs>
<linearGradient id="paint0_linear_1185_182" x1="415.53" y1="-1.32632e-05" x2="415.53" y2="632.74" gradientUnits="userSpaceOnUse">
<stop stop-color="#D0DBF9"/>
<stop offset="0.22" stop-color="#ECF0FC"/>
<stop offset="0.38" stop-color="#D0DBF9"/>
<stop offset="0.59" stop-color="#74A9F5"/>
<stop offset="1" stop-color="#9CBCF4"/>
</linearGradient>
<linearGradient id="paint1_linear_1185_182" x1="500.27" y1="34.7" x2="500.27" y2="677.9" gradientUnits="userSpaceOnUse">
<stop stop-color="#D0DBF9"/>
<stop offset="0.22" stop-color="#ECF0FC"/>
<stop offset="0.38" stop-color="#D0DBF9"/>
<stop offset="0.59" stop-color="#3279ED"/>
<stop offset="1" stop-color="#004DEF"/>
</linearGradient>
<clipPath id="clip0_1185_182">
<rect width="899.13" height="680.58" fill="white"/>
</clipPath>
</defs>
</svg>
