<svg width="720" height="561" viewBox="0 0 720 561" fill="none" xmlns="http://www.w3.org/2000/svg">
<path d="M152.323 218.581L207.356 219.142C207.356 219.142 192.171 237.626 168.67 239.546C145.17 241.466 137.57 227.708 137.57 227.708C137.57 227.708 144.182 225.531 152.323 218.581Z" fill="#41444A"/>
<path d="M168.67 239.546C152.958 235.55 137.57 229.222 124.603 219.311C116.706 213.266 109.729 205.85 104.814 197.176C102.642 193.558 101.011 189.643 99.973 185.554V185.445L43.5332 184.607C46.9136 200.245 57.4809 213.003 70.5767 221.792C79.0512 227.364 88.374 231.525 98.1814 234.11C108.688 236.97 119.302 237.835 130.14 238.505C141.235 239.181 152.397 239.526 163.498 239.526C165.026 239.532 167.149 239.161 168.67 239.546Z" fill="#C8D1D5"/>
<path d="M296.729 459.396C300.021 452.385 315.875 447.112 334.941 447.227C354.007 447.342 369.841 452.777 373.012 459.843C373.403 460.69 373.604 461.613 373.6 462.547C373.6 464.751 372.349 466.84 370.138 468.72C364.053 473.905 350.478 477.468 334.765 477.38C319.053 477.292 305.545 473.581 299.494 468.327C297.303 466.428 296.113 464.325 296.113 462.114C296.112 461.174 296.323 460.245 296.729 459.396Z" fill="#FFE550" stroke="#FFA200" stroke-width="4.5" stroke-linecap="round" stroke-linejoin="round"/>
<path d="M296.025 476.075C296.025 478.286 297.222 480.389 299.406 482.295C305.457 487.549 318.965 491.254 334.677 491.342C350.39 491.429 363.938 487.873 370.05 482.681C372.268 480.795 373.498 478.712 373.532 476.515L373.613 462.486C373.613 464.69 372.362 466.779 370.158 468.659C364.074 473.844 350.498 477.407 334.779 477.319C319.06 477.232 305.558 473.52 299.507 468.267C297.317 466.367 296.127 464.264 296.127 462.053L296.025 476.075Z" fill="#FFE550" stroke="#FFA200" stroke-width="4.5" stroke-linecap="round" stroke-linejoin="round"/>
<path d="M334.88 456.138C321.129 456.056 309.628 459.173 306.85 463.406C306.452 462.821 306.236 462.132 306.228 461.425C306.235 460.845 306.391 460.277 306.681 459.775C309.087 455.387 320.824 452.122 334.907 452.196C348.99 452.27 360.686 455.671 363.053 460.079C363.338 460.587 363.487 461.16 363.485 461.742C363.462 462.451 363.227 463.137 362.809 463.71C360.098 459.45 348.632 456.205 334.88 456.138Z" fill="#FFB700" stroke="#FFB700" stroke-width="4.5" stroke-miterlimit="10"/>
<path d="M360.923 465.603C356.414 468.841 346.401 471.012 334.785 471.012C323.17 471.012 313.198 468.632 308.729 465.353C307.993 464.835 307.355 464.192 306.843 463.453C309.628 459.227 321.129 456.097 334.88 456.185C348.632 456.273 360.098 459.505 362.83 463.757C362.313 464.484 361.666 465.11 360.923 465.603Z" stroke="#FFB700" stroke-width="4.5" stroke-miterlimit="10"/>
<path d="M304.051 440.02C307.35 433.002 323.204 427.728 342.27 427.85C361.336 427.972 377.17 433.401 380.34 440.466C380.725 441.301 380.923 442.21 380.922 443.13C380.922 445.334 379.678 447.43 377.467 449.309C371.382 454.495 357.806 458.058 342.094 457.97C326.382 457.882 312.88 454.157 306.795 448.903C304.605 446.997 303.415 444.894 303.415 442.683C303.428 441.76 303.645 440.85 304.051 440.02Z" fill="#FFE550" stroke="#FFA200" stroke-width="4.5" stroke-linecap="round" stroke-linejoin="round"/>
<path d="M303.348 456.692C303.348 458.903 304.551 461.012 306.728 462.912C312.779 468.165 326.287 471.877 342 471.965C357.712 472.053 371.274 468.51 377.379 463.304C379.597 461.418 380.827 459.335 380.868 457.131L380.949 443.103C380.949 445.313 379.698 447.403 377.487 449.282C371.403 454.468 357.827 458.031 342.115 457.943C326.402 457.855 312.881 454.143 306.843 448.903C304.653 446.997 303.463 444.901 303.463 442.683L303.348 456.692Z" fill="#FFE550" stroke="#FFA200" stroke-width="4.5" stroke-linecap="round" stroke-linejoin="round"/>
<path d="M342.209 436.734C328.451 436.66 316.951 439.776 314.172 444.002C313.778 443.415 313.562 442.727 313.55 442.021C313.557 441.441 313.713 440.873 314.003 440.371C316.416 435.99 328.147 432.725 342.236 432.799C356.326 432.873 368.015 436.274 370.382 440.682C370.695 441.245 370.842 441.886 370.803 442.529C370.765 443.172 370.544 443.791 370.165 444.313C367.427 440.074 355.961 436.829 342.209 436.734Z" fill="#FFB700" stroke="#FFB700" stroke-width="4.5" stroke-miterlimit="10"/>
<path d="M368.245 446.199C363.736 449.431 353.723 451.642 342.115 451.608C330.506 451.574 320.52 449.221 316.058 445.942C315.32 445.428 314.681 444.785 314.172 444.042C316.951 439.824 328.458 436.693 342.202 436.774C355.947 436.856 367.421 440.094 370.159 444.353C369.637 445.079 368.989 445.704 368.245 446.199Z" stroke="#FFB700" stroke-width="4.5" stroke-miterlimit="10"/>
<path d="M271.895 68.7053L315.212 88.7175C315.212 88.7175 310.439 65.859 292.766 55.3052C275.093 44.7515 263.863 54.7441 263.863 54.7441C263.863 54.7441 268.19 59.2062 271.895 68.7053Z" fill="#41444A"/>
<path d="M292.766 55.3052C278.926 53.162 264.411 53.277 250.47 57.6851C241.644 60.3973 233.468 64.8913 226.449 70.8891C223.3 73.5039 220.521 76.5333 218.187 79.8946L218.126 79.9824L173.605 59.7133C182.246 46.4214 195.463 38.4842 209.073 35.2119C217.715 33.1975 226.656 32.8054 235.44 34.0558C244.764 35.3201 253.384 38.4706 262.173 41.8984C271.124 45.4073 279.995 49.2475 288.696 53.3919C289.893 53.9598 291.434 55.1024 292.766 55.3052Z" fill="#C8D1D5"/>
<g opacity="0.9">
<path d="M398.027 58.1245C396.399 56.9829 394.486 56.3153 392.501 56.196C390.516 56.0766 388.537 56.5102 386.783 57.4484L159.489 178.11C157.761 179.029 156.314 180.399 155.303 182.076C154.292 183.752 153.755 185.672 153.749 187.629L153.283 342.007C153.265 343.698 153.65 345.369 154.406 346.882C155.162 348.395 156.267 349.707 157.63 350.708C158.239 351.163 158.894 351.552 159.584 351.871L169.293 357.28C167.702 356.317 166.388 354.957 165.482 353.333C164.575 351.709 164.106 349.877 164.12 348.018L164.594 193.646C164.6 191.689 165.137 189.769 166.147 188.093C167.158 186.417 168.605 185.046 170.334 184.127L397.621 63.4791C398.85 62.8252 400.192 62.4122 401.576 62.2622C403.674 62.041 405.79 62.4431 407.661 63.4183L398.027 58.1245Z" fill="url(#paint0_linear_1448_2546)"/>
<g style="mix-blend-mode:color">
<mask id="mask0_1448_2546" style="mask-type:luminance" maskUnits="userSpaceOnUse" x="153" y="56" width="255" height="302">
<path d="M398.027 58.1245C396.399 56.9829 394.486 56.3153 392.501 56.196C390.516 56.0766 388.537 56.5102 386.783 57.4484L159.489 178.11C157.761 179.029 156.314 180.399 155.303 182.076C154.292 183.752 153.755 185.672 153.749 187.629L153.283 342.007C153.265 343.698 153.65 345.369 154.406 346.882C155.162 348.395 156.267 349.707 157.63 350.708C158.239 351.163 158.894 351.552 159.584 351.871L169.293 357.28C167.702 356.317 166.388 354.957 165.482 353.333C164.575 351.709 164.106 349.877 164.12 348.018L164.594 193.646C164.6 191.689 165.137 189.769 166.147 188.093C167.158 186.417 168.605 185.046 170.334 184.127L397.621 63.4791C398.85 62.8252 400.192 62.4122 401.576 62.2622C403.674 62.041 405.79 62.4431 407.661 63.4183L398.027 58.1245Z" fill="white"/>
</mask>
<g mask="url(#mask0_1448_2546)">
<path d="M470.828 50.3224H99.7168V406.972H470.828V50.3224Z" fill="black"/>
</g>
</g>
<path d="M170.084 357.692L169.293 357.253C169.55 357.408 169.814 357.557 170.084 357.692Z" fill="#BABABA"/>
<path d="M407.661 63.4183L408.831 227.917C408.824 229.99 408.254 232.022 407.182 233.796C406.111 235.57 404.577 237.02 402.746 237.991L170.327 357.807C171.846 358.535 173.515 358.893 175.199 358.853C176.883 358.813 178.533 358.376 180.016 357.577L407.31 236.957C409.038 236.038 410.485 234.667 411.496 232.991C412.507 231.314 413.044 229.395 413.05 227.437L413.523 73.066C413.537 71.0724 412.997 69.1141 411.961 67.4102C410.926 65.7063 409.437 64.3241 407.661 63.4183Z" fill="#BABABA"/>
<path d="M408.831 227.917L407.661 63.4183C405.791 62.4431 403.674 62.041 401.576 62.2622C402.313 63.7592 402.69 65.4075 402.678 67.0759L402.205 221.454C402.199 223.411 401.662 225.331 400.651 227.007C399.64 228.684 398.194 230.054 396.465 230.973L169.178 351.587C167.95 352.246 166.608 352.662 165.223 352.811C166.128 354.645 167.534 356.186 169.279 357.253L170.07 357.692L170.314 357.807L402.759 237.964C404.584 236.993 406.112 235.547 407.181 233.778C408.25 232.009 408.82 229.984 408.831 227.917Z" fill="#BABABA"/>
<path d="M170.334 184.1C168.605 185.019 167.158 186.39 166.148 188.066C165.137 189.742 164.6 191.662 164.594 193.619L164.141 347.991C164.13 349.661 164.507 351.311 165.243 352.811C166.628 352.662 167.971 352.246 169.198 351.587L396.485 230.973C398.214 230.054 399.661 228.684 400.672 227.007C401.682 225.331 402.219 223.411 402.225 221.454L402.699 67.0759C402.71 65.4075 402.333 63.7592 401.597 62.2622C400.213 62.4122 398.87 62.8252 397.641 63.4791L170.334 184.1Z" fill="#BABABA"/>
<path d="M189.704 270.754L189.765 252.547C189.766 252.058 189.9 251.578 190.153 251.159C190.405 250.74 190.766 250.397 191.198 250.167L219.594 235.084C220.007 234.865 220.469 234.758 220.936 234.771C221.403 234.785 221.858 234.919 222.258 235.16C222.657 235.402 222.988 235.743 223.216 236.15C223.445 236.557 223.564 237.017 223.563 237.484L223.509 255.691C223.506 256.179 223.371 256.657 223.119 257.075C222.867 257.493 222.506 257.835 222.075 258.064L193.68 273.148C193.267 273.367 192.805 273.476 192.337 273.464C191.87 273.452 191.414 273.318 191.014 273.077C190.613 272.836 190.282 272.496 190.053 272.088C189.823 271.681 189.703 271.222 189.704 270.754Z" fill="#F7F7F7"/>
<path d="M344.075 129.79V123.299C344.077 122.809 344.212 122.329 344.466 121.91C344.72 121.491 345.082 121.149 345.515 120.92L388.643 98.0137C389.056 97.7938 389.519 97.6848 389.987 97.6974C390.455 97.71 390.911 97.8437 391.312 98.0856C391.712 98.3275 392.043 98.6691 392.272 99.0772C392.501 99.4853 392.621 99.9459 392.618 100.414V106.904C392.616 107.394 392.481 107.874 392.228 108.294C391.974 108.713 391.611 109.055 391.178 109.284L348.037 132.21C347.623 132.428 347.16 132.534 346.692 132.519C346.224 132.504 345.769 132.368 345.37 132.124C344.97 131.88 344.641 131.537 344.415 131.128C344.188 130.719 344.071 130.258 344.075 129.79Z" fill="#EFEFEF"/>
<path d="M392.598 135.503C392.596 135.993 392.461 136.473 392.207 136.892C391.954 137.311 391.591 137.654 391.158 137.883L358.706 155.123L314.165 178.786C313.752 179.006 313.29 179.115 312.823 179.102C312.355 179.09 311.899 178.957 311.499 178.716C311.099 178.475 310.767 178.134 310.538 177.727C310.308 177.32 310.188 176.86 310.189 176.393V169.895C310.191 169.406 310.325 168.926 310.577 168.507C310.83 168.088 311.191 167.745 311.623 167.516L358.719 142.5L388.595 126.619C389.008 126.399 389.47 126.29 389.938 126.303C390.405 126.315 390.861 126.448 391.261 126.689C391.662 126.93 391.993 127.271 392.222 127.678C392.452 128.085 392.572 128.545 392.571 129.012L392.598 135.503Z" fill="#EFEFEF"/>
<path d="M359.922 205.289C367.697 200.941 374.634 205.289 373.931 214.267C373.476 219.189 371.869 223.935 369.239 228.12C366.609 232.305 363.031 235.812 358.793 238.356C351.018 242.886 344.183 238.552 344.751 229.411C345.088 224.45 346.651 219.649 349.299 215.439C351.946 211.23 355.596 207.742 359.922 205.289Z" fill="#A5A5A5"/>
<path d="M380.908 194.133C388.683 189.779 395.62 194.133 394.917 203.105C394.466 208.025 392.864 212.769 390.24 216.955C387.616 221.141 384.044 224.651 379.813 227.201C372.038 231.724 365.202 227.397 365.77 218.256C366.103 213.297 367.659 208.498 370.301 204.288C372.943 200.078 376.587 196.589 380.908 194.133Z" fill="white"/>
<path d="M325.557 142.534C325.556 143.023 325.422 143.503 325.169 143.922C324.917 144.341 324.555 144.684 324.124 144.914L291.671 162.154L247.131 185.817C246.718 186.037 246.255 186.146 245.787 186.134C245.319 186.121 244.862 185.987 244.462 185.745C244.061 185.504 243.73 185.162 243.501 184.754C243.272 184.346 243.153 183.885 243.155 183.417V176.927C243.157 176.437 243.292 175.957 243.546 175.537C243.8 175.118 244.162 174.776 244.595 174.547L291.692 149.532L321.602 133.644C322.014 133.424 322.477 133.315 322.944 133.327C323.411 133.339 323.867 133.473 324.268 133.714C324.668 133.955 324.999 134.296 325.229 134.703C325.458 135.11 325.578 135.57 325.577 136.037L325.557 142.534Z" fill="#EFEFEF"/>
</g>
<g opacity="0.9">
<path d="M476.696 102.07L467.062 96.817C465.434 95.674 463.521 95.0055 461.536 94.8862C459.551 94.7668 457.571 95.2012 455.818 96.1409L228.524 216.802C226.797 217.722 225.352 219.093 224.342 220.77C223.332 222.446 222.796 224.365 222.791 226.322L222.318 380.693C222.302 382.386 222.688 384.058 223.444 385.573C224.199 387.088 225.303 388.402 226.665 389.408C227.274 389.86 227.929 390.247 228.619 390.564L238.328 395.973C236.736 395.009 235.422 393.647 234.515 392.022C233.608 390.397 233.14 388.564 233.156 386.703L233.629 232.325C233.636 230.369 234.173 228.451 235.184 226.776C236.195 225.101 237.641 223.731 239.369 222.813L466.663 102.172C467.888 101.51 469.232 101.096 470.618 100.955C472.715 100.733 474.831 101.133 476.703 102.104L476.696 102.07Z" fill="url(#paint1_linear_1448_2546)"/>
<path d="M239.126 396.378L238.328 395.939C238.585 396.101 238.855 396.243 239.126 396.378Z" fill="#A7BAEB"/>
<path d="M476.696 102.104C474.825 101.133 472.709 100.733 470.611 100.955C469.226 101.096 467.882 101.51 466.656 102.172L239.369 222.793C237.642 223.711 236.195 225.08 235.185 226.756C234.174 228.431 233.636 230.349 233.629 232.305L233.156 386.703C233.152 386.755 233.152 386.807 233.156 386.859V389.563C233.147 391.231 233.524 392.879 234.258 394.377C234.852 394.311 235.44 394.196 236.016 394.032C236.696 394.766 237.474 395.403 238.328 395.925L239.126 396.365L239.369 396.486C240.887 397.212 242.555 397.57 244.237 397.53C245.92 397.49 247.569 397.054 249.051 396.256L476.345 275.649C478.073 274.73 479.52 273.36 480.531 271.683C481.542 270.007 482.079 268.087 482.085 266.13L482.558 111.752C482.572 109.758 482.031 107.8 480.995 106.097C479.96 104.393 478.472 103.01 476.696 102.104Z" fill="#9CBCF4"/>
<path d="M258.745 309.447L258.792 291.24C258.794 290.75 258.928 290.271 259.18 289.852C259.433 289.433 259.794 289.09 260.226 288.86L288.621 273.776C289.034 273.557 289.496 273.448 289.964 273.46C290.431 273.472 290.887 273.605 291.287 273.847C291.688 274.088 292.019 274.428 292.248 274.835C292.478 275.243 292.598 275.702 292.597 276.17L292.536 294.377C292.535 294.866 292.401 295.346 292.148 295.765C291.896 296.184 291.535 296.527 291.103 296.757L262.707 311.84C262.295 312.057 261.834 312.163 261.369 312.149C260.903 312.135 260.45 312.001 260.051 311.761C259.653 311.52 259.323 311.181 259.094 310.775C258.866 310.37 258.745 309.912 258.745 309.447Z" fill="#F7F7F7"/>
<path d="M413.117 168.503V162.005C413.118 161.516 413.252 161.036 413.505 160.617C413.757 160.198 414.119 159.856 414.55 159.626L457.658 136.706C458.07 136.487 458.533 136.378 459 136.39C459.467 136.402 459.923 136.535 460.324 136.776C460.724 137.017 461.055 137.358 461.285 137.765C461.514 138.172 461.634 138.632 461.633 139.1V145.597C461.632 146.086 461.498 146.566 461.246 146.985C460.993 147.404 460.632 147.747 460.2 147.977L417.086 170.896C416.674 171.114 416.212 171.222 415.746 171.209C415.279 171.196 414.824 171.062 414.425 170.821C414.026 170.58 413.695 170.24 413.466 169.834C413.237 169.428 413.117 168.969 413.117 168.503Z" fill="#EBEFFB"/>
<path d="M461.619 174.195C461.618 174.685 461.484 175.164 461.232 175.583C460.979 176.002 460.618 176.345 460.186 176.575L427.734 193.815L383.193 217.478C382.78 217.698 382.317 217.807 381.849 217.795C381.382 217.782 380.925 217.648 380.524 217.407C380.124 217.165 379.793 216.823 379.564 216.415C379.335 216.007 379.216 215.546 379.218 215.078V208.588C379.22 208.098 379.355 207.618 379.608 207.199C379.862 206.779 380.225 206.437 380.658 206.208L427.815 181.173L457.685 165.291C458.097 165.072 458.56 164.963 459.027 164.975C459.494 164.987 459.95 165.12 460.35 165.361C460.751 165.602 461.082 165.943 461.312 166.35C461.541 166.758 461.661 167.217 461.66 167.685L461.619 174.195Z" fill="#EBEFFB"/>
<path d="M428.957 243.981C436.732 239.627 443.669 243.981 442.966 252.953C442.51 257.877 440.901 262.624 438.269 266.811C435.636 270.997 432.055 274.504 427.815 277.049C420.04 281.572 413.204 277.245 413.772 268.104C414.111 263.141 415.675 258.339 418.325 254.129C420.975 249.919 424.628 246.432 428.957 243.981Z" fill="#74A9F5"/>
<path d="M449.95 232.819C457.718 228.472 464.654 232.819 463.951 241.797C463.497 246.719 461.89 251.465 459.26 255.65C456.63 259.835 453.051 263.342 448.814 265.886C441.039 270.416 434.203 266.082 434.771 256.942C435.11 251.98 436.674 247.179 439.323 242.969C441.972 238.759 445.623 235.272 449.95 232.819Z" fill="white"/>
<path d="M394.592 181.22C394.591 181.709 394.457 182.189 394.204 182.608C393.952 183.027 393.591 183.37 393.159 183.6L360.707 200.847L316.166 224.51C315.754 224.728 315.292 224.836 314.826 224.822C314.359 224.809 313.904 224.676 313.505 224.435C313.106 224.194 312.775 223.854 312.546 223.448C312.317 223.042 312.197 222.583 312.197 222.116V215.619C312.199 215.13 312.333 214.65 312.585 214.231C312.837 213.812 313.199 213.469 313.631 213.239L360.727 188.224L390.63 172.329C391.043 172.109 391.506 172 391.974 172.013C392.442 172.026 392.898 172.159 393.299 172.401C393.7 172.643 394.031 172.985 394.26 173.393C394.489 173.801 394.608 174.261 394.606 174.729L394.592 181.22Z" fill="#EBEFFB"/>
</g>
<mask id="mask1_1448_2546" style="mask-type:luminance" maskUnits="userSpaceOnUse" x="424" y="157" width="143" height="165">
<path d="M426.896 281.578C421.433 257.3 427.024 229.594 442.229 205.566C467.468 165.677 511.751 147.625 544.407 162.458C556.738 172.89 562.147 186.764 564.5 197.23C569.956 221.515 564.365 249.221 549.159 273.242C523.928 313.131 479.644 331.183 446.982 316.356C434.657 305.924 429.248 292.017 426.896 281.585V281.578Z" fill="white"/>
</mask>
<g mask="url(#mask1_1448_2546)">
<path opacity="0.5" d="M398.908 282.02L588.985 222.963L583.476 205.234L393.399 264.291L398.908 282.02Z" fill="white"/>
<path opacity="0.5" d="M393.432 296.64L583.509 237.583L582.235 233.483L392.158 292.54L393.432 296.64Z" fill="white"/>
</g>
<path d="M574.159 82.2978L536.476 141.837C535.078 144.045 535.736 146.969 537.944 148.367L560.293 162.511C562.501 163.909 565.425 163.252 566.823 161.043L604.505 101.504C605.903 99.2958 605.246 96.3722 603.037 94.9744L580.689 80.8298C578.48 79.432 575.557 80.0893 574.159 82.2978Z" fill="#F7F6FF" stroke="#A3A5FD" stroke-width="5" stroke-miterlimit="10"/>
<path d="M620.486 5.04227L555.368 108.249C553.982 110.445 554.639 113.348 556.835 114.733L580.676 129.776C582.871 131.161 585.774 130.504 587.159 128.308L652.278 25.1014C653.663 22.9058 653.007 20.003 650.811 18.6177L626.97 3.57516C624.775 2.18987 621.872 2.84671 620.486 5.04227Z" fill="#DDDDF5" stroke="#A3A5FD" stroke-width="4.96614" stroke-miterlimit="10"/>
<path opacity="0.5" d="M581.467 102.569L577.266 109.208C576.567 110.312 576.896 111.774 578 112.473L585.838 117.433C586.942 118.132 588.404 117.804 589.103 116.699L593.304 110.061C594.003 108.957 593.675 107.495 592.57 106.796L584.732 101.835C583.628 101.136 582.166 101.465 581.467 102.569Z" fill="#A3A5FD"/>
<path opacity="0.5" d="M633.928 19.6733L586.342 94.8598C585.643 95.9641 585.971 97.4259 587.076 98.1248L594.914 103.086C596.018 103.784 597.48 103.456 598.179 102.352L645.765 27.165C646.464 26.0608 646.135 24.599 645.031 23.9001L637.193 18.9393C636.088 18.2404 634.627 18.5691 633.928 19.6733Z" fill="#A3A5FD"/>
<path opacity="0.5" d="M566.048 127.061L556.943 141.446C556.244 142.55 556.573 144.012 557.677 144.711L565.515 149.671C566.62 150.37 568.081 150.042 568.78 148.937L577.884 134.553C578.583 133.448 578.255 131.987 577.15 131.288L569.312 126.327C568.208 125.628 566.746 125.957 566.048 127.061Z" fill="#A3A5FD"/>
<path d="M543.636 141.114C546.42 142.878 549.081 144.83 551.6 146.956C510.785 128.215 456.894 148.619 426.963 195.905C397.033 243.19 401.664 300.637 436.07 329.5C433.073 328.131 430.171 326.563 427.382 324.807C385.857 298.528 378.217 236.098 410.318 185.371C442.419 134.644 502.11 114.835 543.636 141.114Z" fill="#DDDDF5" stroke="#A3A5FD" stroke-width="5" stroke-miterlimit="10"/>
<path d="M426.963 195.904C397.04 243.197 401.664 300.637 436.07 329.5C438.596 331.613 441.259 333.558 444.041 335.321C485.567 361.6 545.259 341.784 577.359 291.057C609.46 240.33 601.82 177.907 560.295 151.627C557.509 149.872 554.609 148.304 551.614 146.935C510.785 128.215 456.887 148.619 426.963 195.904ZM446.982 316.39C434.657 305.958 429.249 292.051 426.896 281.619C421.433 257.341 427.024 229.635 442.229 205.606C467.468 165.717 511.752 147.666 544.407 162.499C546.742 163.548 549.001 164.759 551.168 166.123C567.962 176.751 574.722 193.376 577.434 205.444C582.896 229.729 577.305 257.435 562.1 281.457C535.056 324.145 486.223 341.858 453.182 320.947C451.013 319.572 448.942 318.05 446.982 316.39Z" fill="#F7F6FF" stroke="#A3A5FD" stroke-width="5" stroke-miterlimit="10"/>
<path d="M549.159 273.242C564.364 249.221 569.955 221.515 564.499 197.23C562.147 186.764 556.738 172.89 544.406 162.458C546.741 163.508 549 164.718 551.167 166.082C567.961 176.71 574.722 193.335 577.433 205.404C582.896 229.689 577.304 257.395 562.099 281.416C535.056 324.104 486.222 341.818 453.181 320.906C451.02 319.533 448.955 318.013 447.002 316.356C479.643 331.183 523.927 313.111 549.159 273.242Z" fill="#DDDDF5" stroke="#A3A5FD" stroke-width="3" stroke-miterlimit="10"/>
<path style="mix-blend-mode:overlay" opacity="0.3" d="M426.896 281.578C421.433 257.3 427.024 229.594 442.229 205.566C467.468 165.677 511.751 147.625 544.407 162.458C556.738 172.89 562.147 186.764 564.5 197.23C569.956 221.515 564.365 249.221 549.159 273.242C523.928 313.131 479.644 331.183 446.982 316.356C434.657 305.924 429.248 292.017 426.896 281.585V281.578Z" fill="url(#paint2_linear_1448_2546)"/>
<path d="M663.641 213.983L654.007 208.73C652.379 207.587 650.466 206.918 648.481 206.799C646.496 206.68 644.516 207.114 642.764 208.054L415.469 328.688C413.741 329.607 412.294 330.978 411.283 332.654C410.272 334.331 409.735 336.25 409.729 338.208L409.256 492.579C409.243 494.272 409.631 495.943 410.389 497.457C411.147 498.971 412.254 500.283 413.617 501.287C414.226 501.739 414.881 502.126 415.571 502.443L425.279 507.852C423.69 506.889 422.377 505.53 421.47 503.907C420.564 502.285 420.094 500.455 420.107 498.596L420.581 344.218C420.588 342.262 421.125 340.344 422.136 338.669C423.147 336.993 424.593 335.624 426.321 334.705L653.628 214.057C654.855 213.398 656.198 212.984 657.583 212.841C659.68 212.62 661.796 213.02 663.668 213.99L663.641 213.983Z" fill="url(#paint3_linear_1448_2546)"/>
<path d="M663.642 213.99L664.811 378.496C664.803 380.568 664.233 382.6 663.162 384.374C662.09 386.148 660.557 387.598 658.726 388.569L426.308 508.399C427.827 509.125 429.496 509.483 431.179 509.443C432.863 509.403 434.513 508.967 435.996 508.169L663.29 387.535C665.019 386.616 666.465 385.245 667.476 383.569C668.487 381.893 669.024 379.973 669.03 378.016L669.496 223.638C669.512 221.645 668.972 219.687 667.938 217.983C666.904 216.279 665.416 214.897 663.642 213.99Z" fill="#3279ED"/>
<path d="M426.064 508.264L425.273 507.825C425.53 507.984 425.794 508.131 426.064 508.264Z" fill="#5176DE"/>
<path d="M664.811 378.496L663.642 213.99C661.769 213.02 659.654 212.62 657.557 212.841C658.293 214.338 658.671 215.986 658.659 217.654L658.186 372.025C658.18 373.983 657.643 375.902 656.632 377.579C655.621 379.255 654.174 380.626 652.446 381.545L425.158 502.166C423.93 502.822 422.588 503.235 421.203 503.383C422.106 505.219 423.513 506.759 425.26 507.825L426.051 508.264L426.294 508.386L658.74 388.569C660.568 387.596 662.098 386.145 663.168 384.371C664.237 382.597 664.805 380.567 664.811 378.496Z" fill="#3279ED"/>
<path d="M426.314 334.678C424.587 335.597 423.14 336.966 422.13 338.641C421.119 340.317 420.581 342.234 420.574 344.191L420.101 498.569C420.089 500.237 420.466 501.886 421.203 503.383C422.587 503.235 423.93 502.822 425.158 502.166L652.445 381.545C654.174 380.626 655.621 379.255 656.632 377.579C657.642 375.902 658.179 373.983 658.185 372.025L658.659 217.654C658.67 215.986 658.293 214.338 657.556 212.841C656.171 212.984 654.828 213.398 653.601 214.057L426.314 334.678Z" fill="#3279ED"/>
<path d="M445.684 421.333L445.738 403.125C445.74 402.636 445.875 402.155 446.128 401.736C446.382 401.317 446.745 400.975 447.178 400.746L475.573 385.662C475.986 385.442 476.448 385.333 476.916 385.346C477.383 385.358 477.839 385.491 478.239 385.732C478.64 385.973 478.971 386.314 479.2 386.721C479.43 387.128 479.55 387.588 479.549 388.056L479.495 406.263C479.493 406.752 479.359 407.231 479.107 407.651C478.855 408.07 478.493 408.412 478.061 408.642L449.666 423.726C449.253 423.947 448.79 424.057 448.322 424.046C447.853 424.035 447.396 423.902 446.995 423.66C446.593 423.419 446.262 423.078 446.032 422.67C445.802 422.262 445.682 421.801 445.684 421.333Z" fill="#F7F7F7"/>
<path d="M635.733 377.799C627.958 382.147 621.021 377.799 621.724 368.821C622.178 363.899 623.785 359.153 626.415 354.968C629.045 350.783 632.624 347.276 636.862 344.732C644.637 340.202 651.472 344.536 650.904 353.676C650.566 358.638 649.004 363.439 646.356 367.649C643.709 371.858 640.059 375.346 635.733 377.799Z" fill="#91B5F8"/>
<path d="M614.747 388.955C606.972 393.309 600.035 388.955 600.738 379.983C601.193 375.06 602.8 370.314 605.429 366.127C608.059 361.941 611.638 358.433 615.876 355.887C623.651 351.364 630.486 355.691 629.918 364.832C629.581 369.794 628.019 374.595 625.371 378.804C622.724 383.014 619.073 386.502 614.747 388.955Z" fill="#004DEF"/>
<path d="M499.156 335.645V329.148C499.158 328.659 499.292 328.179 499.544 327.76C499.796 327.341 500.158 326.998 500.59 326.768L543.704 303.849C544.116 303.631 544.578 303.523 545.044 303.536C545.51 303.549 545.965 303.683 546.365 303.924C546.764 304.164 547.094 304.504 547.323 304.911C547.553 305.317 547.673 305.776 547.672 306.242V312.739C547.671 313.229 547.537 313.708 547.285 314.127C547.032 314.546 546.671 314.889 546.239 315.119L503.132 338.025C502.72 338.244 502.259 338.353 501.793 338.341C501.327 338.33 500.872 338.198 500.472 337.958C500.071 337.719 499.74 337.38 499.51 336.975C499.279 336.569 499.157 336.111 499.156 335.645Z" fill="#EBEFFB"/>
<path d="M648.572 257.483C648.57 257.972 648.436 258.452 648.184 258.871C647.931 259.29 647.57 259.633 647.138 259.862L614.686 277.103L570.145 300.766C569.733 300.985 569.27 301.094 568.803 301.082C568.336 301.07 567.88 300.937 567.479 300.696C567.079 300.455 566.748 300.114 566.518 299.707C566.289 299.3 566.169 298.84 566.17 298.372V291.875C566.171 291.386 566.305 290.906 566.558 290.487C566.81 290.068 567.171 289.725 567.603 289.495L614.7 264.48L644.576 248.599C644.988 248.381 645.45 248.273 645.916 248.286C646.382 248.299 646.837 248.433 647.237 248.674C647.636 248.914 647.966 249.255 648.196 249.661C648.425 250.067 648.545 250.526 648.544 250.992L648.572 257.483Z" fill="#EBEFFB"/>
<path d="M618.316 119.155L617.343 117.803L611.934 121.258C611.481 121.521 611.042 121.798 610.582 122.103C600.319 129.499 600.873 147.794 611.819 162.979C622.765 178.164 639.944 184.472 650.201 177.075L656.961 172.776L655.461 170.7C659.727 161.715 657.489 148.017 648.99 136.219C640.492 124.422 628.187 117.952 618.316 119.155Z" fill="#FFE550" stroke="#FFA200" stroke-width="4.5" stroke-linecap="round" stroke-linejoin="round"/>
<path d="M656.981 172.806C667.241 165.412 666.688 147.11 655.746 131.927C644.805 116.745 627.617 110.431 617.357 117.826C607.097 125.22 607.65 143.522 618.592 158.704C629.534 173.887 646.721 180.2 656.981 172.806Z" fill="#FFE550" stroke="#FFA200" stroke-width="4.5" stroke-linecap="round" stroke-linejoin="round"/>
<path d="M623.299 124.212C622.696 124.65 622.163 125.176 621.717 125.774C627.559 122.86 638.883 127.072 647.118 138.491C652.621 146.131 655.136 154.988 653.683 161.613C653.392 163.11 652.781 164.526 651.891 165.764C652.225 165.605 652.545 165.415 652.844 165.197C654.514 164 655.643 162.073 656.225 159.477C657.685 152.858 655.17 143.994 649.667 136.355C640.945 124.28 628.776 120.264 623.299 124.212Z" fill="#FFB700" stroke="#FFB700" stroke-width="4.5" stroke-linecap="round" stroke-linejoin="round"/>
<path d="M653.682 161.613C655.136 154.988 652.621 146.131 647.117 138.491C638.883 127.072 627.558 122.86 621.717 125.774C620.832 127.015 620.222 128.43 619.925 129.925C618.465 136.551 620.98 145.414 626.49 153.054C634.718 164.473 646.042 168.678 651.884 165.764C652.773 164.526 653.385 163.11 653.676 161.613H653.682Z" fill="#FFE550" stroke="#FFB700" stroke-width="4.5" stroke-linecap="round" stroke-linejoin="round"/>
<path d="M296.992 421.089L296.046 422.813L302.448 426.822C302.952 427.173 303.474 427.498 304.01 427.796C317.038 434.969 336.212 425.152 346.827 405.864C357.441 386.575 355.487 365.129 342.459 357.956L334.515 352.973L333.062 355.61C321.365 355.61 307.925 364.879 299.663 379.888C291.401 394.898 290.732 411.212 296.992 421.089Z" fill="#FFE550" stroke="#FFA200" stroke-width="4.5" stroke-linecap="round" stroke-linejoin="round"/>
<path d="M338.862 400.861C349.478 381.574 347.519 360.124 334.487 352.951C321.455 345.777 302.284 355.597 291.668 374.884C281.052 394.17 283.011 415.62 296.043 422.794C309.075 429.967 328.246 420.147 338.862 400.861Z" fill="#FFE550" stroke="#FFA200" stroke-width="4.5" stroke-linecap="round" stroke-linejoin="round"/>
<path d="M299.852 413.253C300.622 413.668 301.449 413.967 302.306 414.139C296.269 409.406 295.031 395.208 303.016 380.727C308.357 371.025 316.504 363.885 324.279 362.094C326.016 361.652 327.828 361.587 329.593 361.904C329.254 361.633 328.892 361.391 328.511 361.181C326.395 360.011 323.779 359.781 320.729 360.505C312.954 362.297 304.808 369.436 299.467 379.145C291.022 394.458 292.888 409.42 299.852 413.253Z" fill="#FFB700" stroke="#FFB700" stroke-width="4.5" stroke-linecap="round" stroke-linejoin="round"/>
<path d="M324.279 362.094C316.504 363.885 308.357 371.025 303.016 380.727C295.031 395.242 296.255 409.4 302.306 414.139C304.072 414.456 305.887 414.392 307.626 413.95C315.402 412.158 323.555 405.019 328.896 395.317C336.881 380.808 335.657 366.644 329.572 361.904C327.808 361.587 325.996 361.652 324.258 362.094H324.279Z" stroke="#FFB700" stroke-width="4.5" stroke-miterlimit="10"/>
<path d="M0 95.9246C0 95.9246 4.98277 69.3949 25.5426 62.7625C46.1024 56.1301 54.3372 65.6359 54.3372 65.6359C54.3372 65.6359 48.4214 71.457 49.4085 77.9271L0 95.9246Z" fill="#41444A"/>
<path d="M149.754 76.602C148.577 77.2781 139.22 77.224 134.319 76.8454C129.351 76.5286 124.47 75.3861 119.878 73.4649C113.921 70.7268 109.216 65.2978 105.004 60.4502L104.936 60.3691C93.4425 45.2788 81.9963 46.2524 74.3565 47.8074C72.8015 48.1252 71.6522 48.4497 70.9355 48.666L70.4758 48.808C70.327 48.8621 70.2459 48.8891 70.2594 48.8959C58.5699 52.851 25.543 62.7625 25.543 62.7625C25.543 62.7625 49.7807 54.9266 65.0806 75.0605C70.2256 80.9763 74.6946 86.865 81.5907 90.9553C88.8316 95.262 100.203 101.671 108.323 98.2165C108.371 98.2165 121.717 91.9965 131.08 87.487C137.573 84.3397 143.816 80.7008 149.754 76.602Z" fill="#BBC2C6"/>
<path d="M712.894 307.926C711.191 301.699 698.92 295.08 683.255 292.484C667.59 289.888 653.804 292.078 650.201 297.426C649.764 298.059 649.469 298.778 649.335 299.535C649.031 301.347 649.754 303.24 651.296 305.1C655.582 310.224 666.17 315.079 679.11 317.269C692.051 319.46 703.645 318.31 709.365 314.855C711.434 313.605 712.746 312.05 713.03 310.231C713.155 309.462 713.108 308.675 712.894 307.926Z" fill="#FFE550" stroke="#FFA200" stroke-width="4.5" stroke-linecap="round" stroke-linejoin="round"/>
<path d="M711.096 321.725C710.792 323.536 709.493 325.105 707.425 326.342C701.712 329.797 690.09 330.919 677.176 328.756C664.263 326.592 653.642 321.738 649.369 316.586C647.814 314.72 647.097 312.834 647.381 311.022L649.315 299.495C649.011 301.307 649.727 303.2 651.275 305.059C655.555 310.184 666.149 315.038 679.09 317.229C692.03 319.419 703.618 318.27 709.338 314.815C711.407 313.564 712.718 312.009 713.002 310.19L711.096 321.725Z" fill="#FFE550" stroke="#FFA200" stroke-width="4.5" stroke-linecap="round" stroke-linejoin="round"/>
<path d="M682.024 299.819C693.335 301.712 702.307 305.904 704.011 309.778C704.418 309.352 704.693 308.816 704.801 308.237C704.882 307.76 704.835 307.27 704.666 306.817C703.314 302.875 694.14 298.528 682.565 296.581C670.99 294.634 660.93 295.769 658.334 299.049C658.03 299.427 657.826 299.876 657.739 300.353C657.652 300.936 657.739 301.531 657.989 302.064C660.856 298.954 670.733 297.926 682.024 299.819Z" fill="#FFB700" stroke="#FFB700" stroke-width="4.5" stroke-miterlimit="10"/>
<path d="M659.308 303.889C662.546 307.189 670.456 310.427 679.996 312.002C689.536 313.578 698.061 313.125 702.199 311.069C702.876 310.749 703.492 310.312 704.018 309.778C702.334 305.911 693.335 301.706 682.031 299.819C670.727 297.933 660.856 298.954 658.003 302.057C658.32 302.744 658.763 303.365 659.308 303.889Z" stroke="#FFB700" stroke-width="4.5" stroke-miterlimit="10"/>
<path d="M433.183 525.301C429.722 517.932 413.076 512.395 393.057 512.503C373.038 512.611 356.413 518.338 353.087 525.754C352.682 526.632 352.472 527.587 352.472 528.553C352.472 530.872 353.783 533.063 356.102 535.037C362.518 540.486 376.743 544.225 393.247 544.13C409.75 544.036 423.927 540.142 430.283 534.625C432.581 532.63 433.846 530.419 433.839 528.1C433.826 527.131 433.603 526.176 433.183 525.301Z" fill="#FFE550" stroke="#FFA200" stroke-width="4.5" stroke-linecap="round" stroke-linejoin="round"/>
<path d="M433.9 542.805C433.9 545.124 432.636 547.335 430.337 549.33C423.982 554.846 409.804 558.747 393.301 558.835C376.798 558.923 362.573 555.191 356.164 549.742C353.838 547.761 352.54 545.571 352.506 543.265L352.418 528.533C352.418 530.852 353.73 533.043 356.049 535.017C362.471 540.466 376.696 544.205 393.193 544.11C409.689 544.016 423.874 540.121 430.229 534.604C432.528 532.576 433.792 530.399 433.785 528.08L433.9 542.805Z" fill="#FFE550" stroke="#FFA200" stroke-width="4.5" stroke-linecap="round" stroke-linejoin="round"/>
<path d="M393.125 521.867C407.566 521.786 419.641 525.058 422.555 529.5C422.982 528.888 423.217 528.163 423.231 527.418C423.225 526.81 423.062 526.213 422.758 525.687C420.222 521.083 407.884 517.655 393.111 517.729C378.339 517.804 366.068 521.38 363.559 526.011C363.268 526.547 363.112 527.146 363.106 527.756C363.124 528.497 363.359 529.216 363.783 529.824C366.642 525.349 378.684 521.921 393.125 521.867Z" fill="#FFB700" stroke="#FFB700" stroke-width="4.5" stroke-miterlimit="10"/>
<path d="M365.784 531.812C370.517 535.193 381.03 537.525 393.22 537.457C405.41 537.39 415.896 534.956 420.581 531.515C421.36 530.965 422.031 530.278 422.562 529.486C419.641 525.051 407.56 521.765 393.125 521.853C378.691 521.941 366.65 525.342 363.776 529.811C364.316 530.596 364.997 531.275 365.784 531.812Z" stroke="#FFB700" stroke-width="4.5" stroke-miterlimit="10"/>
<path d="M427.139 506.628C423.677 499.265 407.032 493.728 387.013 493.836C366.994 493.944 350.369 499.671 347.043 507.088C346.638 507.965 346.426 508.92 346.421 509.887C346.421 512.199 347.739 514.396 350.058 516.37C356.474 521.813 370.699 525.552 387.203 525.464C403.706 525.376 417.883 521.475 424.239 515.958C426.537 513.93 427.802 511.753 427.795 509.434C427.782 508.462 427.558 507.505 427.139 506.628Z" fill="#FFE550" stroke="#FFA200" stroke-width="4.5" stroke-linecap="round" stroke-linejoin="round"/>
<path d="M427.855 524.139C427.855 526.458 426.591 528.675 424.292 530.67C417.937 536.186 403.753 540.081 387.256 540.175C370.76 540.27 356.528 536.524 350.119 531.082C347.786 529.094 346.495 526.91 346.454 524.605L346.373 509.873C346.373 512.185 347.685 514.383 350.004 516.357C356.42 521.799 370.645 525.538 387.148 525.45C403.651 525.362 417.829 521.461 424.184 515.944C426.483 513.95 427.747 511.739 427.74 509.42L427.855 524.139Z" fill="#FFE550" stroke="#FFA200" stroke-width="4.5" stroke-linecap="round" stroke-linejoin="round"/>
<path d="M387.053 503.207C401.495 503.126 413.57 506.398 416.484 510.833C416.909 510.223 417.144 509.501 417.16 508.758C417.154 508.146 416.989 507.547 416.68 507.02C414.151 502.423 401.806 498.995 387.04 499.069C372.274 499.144 359.996 502.72 357.488 507.345C357.197 507.88 357.042 508.479 357.035 509.089C357.048 509.831 357.284 510.551 357.711 511.158C360.571 506.689 372.612 503.281 387.053 503.207Z" fill="#FFB700" stroke="#FFB700" stroke-width="4.5" stroke-miterlimit="10"/>
<path d="M359.713 513.132C364.446 516.512 374.959 518.852 387.149 518.784C399.339 518.716 409.818 516.282 414.51 512.841C415.288 512.291 415.96 511.604 416.491 510.813C413.57 506.378 401.489 503.092 387.054 503.18C372.62 503.268 360.572 506.662 357.705 511.137C358.245 511.921 358.926 512.597 359.713 513.132Z" stroke="#FFB700" stroke-width="4.5" stroke-miterlimit="10"/>
<path d="M433.588 488.461C430.127 481.092 413.482 475.555 393.463 475.67C373.444 475.785 356.819 481.498 353.492 488.914C353.087 489.792 352.877 490.747 352.877 491.713C352.877 494.032 354.189 496.223 356.508 498.197C362.924 503.646 377.149 507.385 393.652 507.29C410.155 507.196 424.333 503.301 430.688 497.785C432.987 495.79 434.251 493.586 434.244 491.26C434.231 490.291 434.007 489.336 433.588 488.461Z" fill="#FFE550" stroke="#FFA200" stroke-width="4.5" stroke-linecap="round" stroke-linejoin="round"/>
<path d="M434.333 505.972C434.333 508.291 433.068 510.502 430.77 512.503C424.415 518.02 410.23 521.914 393.734 521.968C377.237 522.022 363.005 518.324 356.596 512.875C354.264 510.894 352.972 508.703 352.938 506.398L352.851 491.666C352.851 493.985 354.162 496.176 356.481 498.156C362.911 503.667 377.109 507.372 393.625 507.277C410.142 507.182 424.306 503.288 430.662 497.778C432.96 495.75 434.225 493.573 434.218 491.247L434.333 505.972Z" fill="#FFE550" stroke="#FFA200" stroke-width="4.5" stroke-linecap="round" stroke-linejoin="round"/>
<path d="M393.53 485.034C407.972 484.952 420.047 488.225 422.961 492.667C423.388 492.055 423.623 491.33 423.637 490.584C423.63 489.976 423.467 489.38 423.163 488.854C420.628 484.249 408.289 480.822 393.517 480.903C378.744 480.984 366.473 484.547 363.965 489.178C363.634 489.769 363.479 490.441 363.519 491.117C363.558 491.793 363.791 492.443 364.188 492.991C367.048 488.522 379.089 485.115 393.53 485.034Z" fill="#FFB700" stroke="#FFB700" stroke-width="4.5" stroke-miterlimit="10"/>
<path d="M366.19 494.979C370.922 498.359 381.435 500.692 393.625 500.624C405.815 500.557 416.295 498.123 420.987 494.681C421.765 494.132 422.436 493.444 422.968 492.653C420.047 488.218 407.965 484.932 393.531 485.02C379.096 485.108 367.048 488.509 364.182 492.978C364.722 493.763 365.402 494.441 366.19 494.979Z" stroke="#FFB700" stroke-width="4.5" stroke-miterlimit="10"/>
<path d="M425.895 468.889C422.433 461.526 405.788 455.989 385.769 456.097C365.75 456.205 349.125 461.925 345.799 469.342C345.394 470.221 345.184 471.179 345.184 472.147C345.184 474.46 346.495 476.657 348.814 478.631C355.23 484.04 369.462 487.812 385.958 487.724C402.455 487.637 416.639 483.736 422.995 478.219C425.293 476.19 426.558 474.013 426.551 471.688C426.537 470.718 426.313 469.763 425.895 468.889Z" fill="#FFE550" stroke="#FFA200" stroke-width="4.5" stroke-linecap="round" stroke-linejoin="round"/>
<path d="M426.638 486.399C426.638 488.718 425.374 490.929 423.075 492.93C416.72 498.447 402.543 502.341 386.039 502.436C369.536 502.531 355.318 498.785 348.902 493.343C346.576 491.355 345.285 489.171 345.244 486.859L345.156 472.134C345.156 474.446 346.468 476.643 348.787 478.618C355.21 484.026 369.435 487.799 385.931 487.711C402.428 487.623 416.612 483.722 422.967 478.205C425.266 476.177 426.53 474 426.523 471.681L426.638 486.399Z" fill="#FFE550" stroke="#FFA200" stroke-width="4.5" stroke-linecap="round" stroke-linejoin="round"/>
<path d="M385.837 465.461C400.278 465.386 412.353 468.659 415.274 473.094C415.697 472.483 415.932 471.761 415.95 471.018C415.944 470.408 415.781 469.81 415.477 469.281C412.941 464.683 400.603 461.256 385.837 461.33C371.071 461.404 358.793 464.981 356.278 469.605C355.946 470.196 355.791 470.869 355.832 471.546C355.872 472.222 356.107 472.872 356.508 473.418C359.355 468.949 371.396 465.542 385.837 465.461Z" fill="#FFB700" stroke="#FFB700" stroke-width="4.5" stroke-miterlimit="10"/>
<path d="M358.495 475.406C363.228 478.787 373.741 481.126 385.931 481.058C398.121 480.991 408.607 478.557 413.292 475.115C414.068 474.576 414.739 473.9 415.273 473.121C412.352 468.679 400.271 465.4 385.843 465.488C371.415 465.576 359.361 468.97 356.487 473.439C357.03 474.212 357.711 474.879 358.495 475.406Z" stroke="#FFB700" stroke-width="4.5" stroke-miterlimit="10"/>
<path d="M498.345 533.523C501.996 526.248 496.059 509.738 483.592 494.073C471.125 478.408 456.353 468.875 448.436 470.843C447.495 471.068 446.614 471.495 445.853 472.093C444.041 473.533 443.149 475.913 443 478.956C442.689 487.366 448.544 500.861 458.821 513.774C469.097 526.687 480.922 535.409 489.19 537.005C492.179 537.579 494.694 537.207 496.512 535.767C497.28 535.163 497.906 534.396 498.345 533.523Z" fill="#FFE550" stroke="#FFA200" stroke-width="4.5" stroke-linecap="round" stroke-linejoin="round"/>
<path d="M485.039 544.908C483.227 546.355 480.699 546.72 477.711 546.145C469.442 544.563 457.61 535.821 447.341 522.915C437.071 510.008 431.196 496.527 431.527 488.117C431.649 485.061 432.568 482.708 434.36 481.241L445.853 472.066C444.041 473.506 443.149 475.886 443 478.929C442.689 487.339 448.544 500.834 458.821 513.74C469.097 526.647 480.922 535.375 489.191 536.977C492.179 537.552 494.694 537.18 496.519 535.74L485.039 544.908Z" fill="#FFE550" stroke="#FFA200" stroke-width="4.5" stroke-linecap="round" stroke-linejoin="round"/>
<path d="M476.27 499.914C485.262 511.219 490.157 522.732 488.473 527.769C489.209 527.713 489.914 527.445 490.502 526.998C490.975 526.615 491.343 526.117 491.57 525.552C493.598 520.718 488.696 508.913 479.495 497.338C470.293 485.764 459.888 478.32 454.723 479.226C454.118 479.32 453.547 479.57 453.067 479.949C452.492 480.42 452.071 481.05 451.856 481.761C457.157 481.254 467.285 488.617 476.27 499.914Z" fill="#FFB700" stroke="#FFB700" stroke-width="4.5" stroke-miterlimit="10"/>
<path d="M451.553 484.574C451.81 490.395 456.488 500.124 464.074 509.63C471.66 519.135 480.057 525.903 485.661 527.465C486.566 527.735 487.511 527.843 488.454 527.783C490.137 522.746 485.249 511.225 476.284 499.935C467.319 488.644 457.171 481.275 451.884 481.782C451.605 482.685 451.493 483.631 451.553 484.574Z" stroke="#FFB700" stroke-width="4.5" stroke-miterlimit="10"/>
<path d="M433.183 449.58C429.722 442.21 413.076 436.673 393.057 436.781C373.038 436.889 356.413 442.616 353.087 450.033C352.682 450.91 352.472 451.865 352.472 452.832C352.472 455.15 353.783 457.341 356.102 459.315C362.518 464.764 376.743 468.503 393.247 468.409C409.75 468.314 423.927 464.42 430.283 458.903C432.581 456.908 433.846 454.698 433.839 452.379C433.826 451.409 433.603 450.454 433.183 449.58Z" fill="#FFE550" stroke="#FFA200" stroke-width="4.5" stroke-linecap="round" stroke-linejoin="round"/>
<path d="M433.9 467.104C433.9 469.423 432.636 471.634 430.337 473.628C423.982 479.145 409.804 483.046 393.301 483.134C376.798 483.222 362.573 479.49 356.164 474.04C353.838 472.059 352.54 469.869 352.506 467.563L352.418 452.832C352.418 455.151 353.73 457.341 356.049 459.315C362.471 464.765 376.696 468.503 393.193 468.409C409.689 468.314 423.874 464.42 430.229 458.903C432.528 456.908 433.792 454.698 433.785 452.379L433.9 467.104Z" fill="#FFE550" stroke="#FFA200" stroke-width="4.5" stroke-linecap="round" stroke-linejoin="round"/>
<path d="M393.125 446.199C407.566 446.118 419.641 449.39 422.555 453.832C422.982 453.22 423.217 452.496 423.231 451.75C423.225 451.142 423.062 450.546 422.758 450.019C420.222 445.415 407.884 441.987 393.111 442.061C378.339 442.136 366.068 445.712 363.559 450.344C363.268 450.879 363.112 451.478 363.106 452.088C363.125 452.829 363.36 453.548 363.783 454.157C366.642 449.647 378.684 446.24 393.125 446.199Z" fill="#FFB700" stroke="#FFB700" stroke-width="4.5" stroke-miterlimit="10"/>
<path d="M365.784 456.111C370.517 459.491 381.03 461.824 393.22 461.756C405.41 461.688 415.896 459.254 420.581 455.813C421.36 455.263 422.031 454.576 422.562 453.785C419.641 449.35 407.56 446.064 393.125 446.152C378.691 446.24 366.65 449.64 363.776 454.109C364.316 454.895 364.997 455.573 365.784 456.111Z" stroke="#FFB700" stroke-width="4.5" stroke-miterlimit="10"/>
<path d="M399.014 375.548C399.014 373.445 383.572 373.52 380.644 370.241C377.717 366.962 377.48 349.654 375.912 349.654C374.336 349.654 374.1 366.962 371.179 370.241C368.258 373.52 352.816 373.445 352.816 375.548C352.816 377.657 368.251 377.576 371.179 380.862C374.106 384.148 374.343 401.449 375.912 401.449C377.48 401.449 377.723 384.141 380.644 380.862C383.565 377.583 399.014 377.657 399.014 375.548Z" fill="url(#paint4_linear_1448_2546)"/>
<path d="M702.936 188.15C702.936 186.047 687.5 186.122 684.573 182.842C681.645 179.563 681.409 162.256 679.84 162.256C678.265 162.256 678.028 179.563 675.108 182.842C672.187 186.122 656.745 186.047 656.745 188.15C656.745 190.259 672.18 190.178 675.108 193.464C678.035 196.75 678.272 214.051 679.84 214.051C681.409 214.051 681.645 196.743 684.573 193.464C687.5 190.185 702.936 190.259 702.936 188.15Z" fill="url(#paint5_linear_1448_2546)"/>
<path d="M519.864 78.2652C519.864 76.1558 504.429 76.2369 501.502 72.9579C498.574 69.6788 498.338 52.3642 496.769 52.3642C495.194 52.3642 494.957 69.6721 492.036 72.9579C489.116 76.2437 473.674 76.1558 473.674 78.2652C473.674 80.3746 489.109 80.2934 492.036 83.5725C494.964 86.8515 495.2 104.159 496.769 104.159C498.338 104.159 498.574 86.8582 501.502 83.5725C504.429 80.2867 519.864 80.3746 519.864 78.2652Z" fill="#A3A5FD" stroke="#A3A5FD" stroke-width="2" stroke-miterlimit="10"/>
<path d="M468.103 261.627C468.103 260.275 458.387 260.349 456.542 258.287C454.696 256.225 454.554 245.327 453.56 245.327C452.573 245.327 452.424 256.218 450.579 258.287C448.733 260.356 439.018 260.315 439.018 261.627C439.018 262.979 448.74 262.905 450.579 264.974C452.418 267.043 452.607 277.934 453.56 277.934C454.554 277.934 454.703 267.036 456.542 264.974C458.381 262.912 468.103 262.945 468.103 261.627Z" fill="#A3A5FD" stroke="#A3A5FD" stroke-width="2" stroke-miterlimit="10"/>
<path d="M720 213.212C720 212.016 711.211 212.056 709.527 210.19C707.844 208.324 707.722 198.447 706.823 198.447C705.924 198.447 705.789 208.317 704.119 210.19C702.449 212.063 693.653 212.016 693.653 213.212C693.653 214.416 702.442 214.368 704.119 216.241C705.795 218.114 705.924 227.978 706.823 227.978C707.716 227.978 707.851 218.114 709.527 216.241C711.204 214.368 720 214.416 720 213.212Z" fill="url(#paint6_linear_1448_2546)"/>
<defs>
<linearGradient id="paint0_linear_1448_2546" x1="153.283" y1="206.729" x2="407.661" y2="206.729" gradientUnits="userSpaceOnUse">
<stop stop-color="#8FB2F4"/>
<stop offset="0.11" stop-color="#8FB2F4"/>
<stop offset="0.2" stop-color="#ECF0FC"/>
<stop offset="0.32" stop-color="#D0DBF9"/>
<stop offset="0.45" stop-color="#ECF0FC"/>
<stop offset="0.64" stop-color="#D0DBF9"/>
<stop offset="0.86" stop-color="#A0BDF5"/>
<stop offset="1" stop-color="#3279ED"/>
</linearGradient>
<linearGradient id="paint1_linear_1448_2546" x1="222.318" y1="245.421" x2="476.696" y2="245.421" gradientUnits="userSpaceOnUse">
<stop stop-color="#D0DBF9"/>
<stop offset="0.22" stop-color="#ECF0FC"/>
<stop offset="0.38" stop-color="#D0DBF9"/>
<stop offset="0.59" stop-color="#74A9F5"/>
<stop offset="1" stop-color="#9CBCF4"/>
</linearGradient>
<linearGradient id="paint2_linear_1448_2546" x1="465.946" y1="198.534" x2="549.335" y2="313.091" gradientUnits="userSpaceOnUse">
<stop stop-color="#D0DBF9"/>
<stop offset="0.22" stop-color="#ECF0FC"/>
<stop offset="0.38" stop-color="#D0DBF9"/>
<stop offset="0.55" stop-color="#9CBCF4"/>
<stop offset="0.73" stop-color="#ECF0FC"/>
<stop offset="1" stop-color="#9CBCF4"/>
</linearGradient>
<linearGradient id="paint3_linear_1448_2546" x1="389.359" y1="437.261" x2="606.214" y2="304.281" gradientUnits="userSpaceOnUse">
<stop stop-color="#8FB2F4"/>
<stop offset="0.11" stop-color="#8FB2F4"/>
<stop offset="0.2" stop-color="#ECF0FC"/>
<stop offset="0.32" stop-color="#D0DBF9"/>
<stop offset="0.45" stop-color="#ECF0FC"/>
<stop offset="0.64" stop-color="#D0DBF9"/>
<stop offset="0.86" stop-color="#A0BDF5"/>
<stop offset="1" stop-color="#3279ED"/>
</linearGradient>
<linearGradient id="paint4_linear_1448_2546" x1="387.033" y1="385.797" x2="353.053" y2="354.494" gradientUnits="userSpaceOnUse">
<stop stop-color="#9CBCF4"/>
<stop offset="0.22" stop-color="#ECF0FC"/>
<stop offset="0.38" stop-color="#D0DBF9"/>
<stop offset="0.59" stop-color="#74A9F5"/>
<stop offset="1" stop-color="#9CBCF4"/>
</linearGradient>
<linearGradient id="paint5_linear_1448_2546" x1="656.738" y1="188.15" x2="702.936" y2="188.15" gradientUnits="userSpaceOnUse">
<stop stop-color="#D0DBF9"/>
<stop offset="0.22" stop-color="#ECF0FC"/>
<stop offset="0.38" stop-color="#D0DBF9"/>
<stop offset="0.59" stop-color="#74A9F5"/>
<stop offset="1" stop-color="#9CBCF4"/>
</linearGradient>
<linearGradient id="paint6_linear_1448_2546" x1="693.66" y1="213.212" x2="720" y2="213.212" gradientUnits="userSpaceOnUse">
<stop stop-color="#D0DBF9"/>
<stop offset="0.22" stop-color="#ECF0FC"/>
<stop offset="0.38" stop-color="#D0DBF9"/>
<stop offset="0.59" stop-color="#74A9F5"/>
<stop offset="1" stop-color="#9CBCF4"/>
</linearGradient>
</defs>
</svg>
