<svg width="60" height="60" viewBox="0 0 60 60" fill="none" xmlns="http://www.w3.org/2000/svg">
<g clip-path="url(#clip0_1378_166)">
<path d="M30 60C46.5685 60 60 46.5685 60 30C60 13.4315 46.5685 0 30 0C13.4315 0 0 13.4315 0 30C0 46.5685 13.4315 60 30 60Z" fill="#D0D9F0"/>
<path d="M33.0003 32.66L38.2503 37.92C38.2503 37.92 38.2503 37.95 38.2403 37.95H18.6203C18.6203 37.95 18.6103 37.95 18.6003 37.94L9.32031 21.57C9.32031 21.57 9.32031 21.54 9.34031 21.54H21.8603H21.8703L27.5203 27.19C27.5203 27.19 27.5203 27.22 27.5103 27.22H19.4403C19.4403 27.22 19.4103 27.24 19.4203 27.25L23.1803 32.63C23.1803 32.63 23.1803 32.63 23.2003 32.63H32.9803H32.9903L33.0003 32.66Z" fill="white"/>
<path d="M50.6702 32.92L46.2502 28.5C46.2502 28.5 46.2502 28.5 46.2402 28.5H31.3802C31.3802 28.5 31.3502 28.52 31.3702 28.53L47.9402 45.1C47.9402 45.1 47.9802 45.1 47.9702 45.08L41.7002 33C41.7002 33 41.7002 32.97 41.7202 32.97H50.6702C50.6702 32.97 50.7002 32.95 50.6802 32.94L50.6702 32.92Z" fill="white"/>
<path d="M46.0602 25.96L41.6402 21.54C41.6402 21.54 41.6402 21.54 41.6302 21.54H24.4202C24.4202 21.54 24.3902 21.56 24.4102 21.57L28.8302 25.99C28.8302 25.99 28.8302 25.99 28.8402 25.99H46.0502C46.0502 25.99 46.0802 25.97 46.0602 25.96Z" fill="white"/>
</g>
<defs>
<clipPath id="clip0_1378_166">
<rect width="60" height="60" fill="white"/>
</clipPath>
</defs>
</svg>
