<svg width="36" height="36" viewBox="0 0 36 36" fill="none" xmlns="http://www.w3.org/2000/svg">
<path d="M14.3732 26.7464C16.8204 26.7464 19.2126 26.0207 21.2474 24.6612C23.2822 23.3016 24.8681 21.3691 25.8046 19.1082C26.7411 16.8473 26.9861 14.3595 26.5087 11.9593C26.0312 9.55916 24.8528 7.35445 23.1224 5.62403C21.392 3.8936 19.1873 2.71517 16.7871 2.23775C14.3869 1.76033 11.8991 2.00537 9.63818 2.94187C7.37728 3.87837 5.44485 5.46427 4.08526 7.49903C2.72568 9.5338 2 11.926 2 14.3732C2 15.9981 2.32005 17.607 2.94186 19.1082C3.56367 20.6094 4.47507 21.9734 5.62403 23.1224C6.77298 24.2713 8.137 25.1827 9.63818 25.8046C11.1394 26.4264 12.7483 26.7464 14.3732 26.7464Z" stroke="#5F5F61" stroke-width="4" stroke-miterlimit="10"/>
<path d="M23.0225 23.0042L34.0001 33.9907" stroke="#5F5F61" stroke-width="4" stroke-miterlimit="10"/>
</svg>
