<svg width="32" height="34" viewBox="0 0 32 34" fill="none" xmlns="http://www.w3.org/2000/svg">
<path d="M32 33.5708C32 29.3273 30.3143 25.2577 27.3137 22.2571C24.3131 19.2565 20.2435 17.5708 16 17.5708C11.7565 17.5708 7.68689 19.2565 4.68631 22.2571C1.68572 25.2577 0 29.3273 0 33.5708H32Z" fill="#5F5F61"/>
<path d="M24.2755 6.94859C24.0771 5.75489 23.6205 4.61889 22.9375 3.62C22.2545 2.62112 21.3616 1.78343 20.3212 1.16547C19.2808 0.547505 18.118 0.164192 16.9141 0.0422861C15.7102 -0.07962 14.4942 0.0628207 13.3511 0.459685C12.1963 0.861181 11.1415 1.50635 10.2581 2.35142C9.37466 3.19649 8.68336 4.2217 8.23105 5.35747C7.78539 6.41969 7.57227 7.56499 7.606 8.71641C7.63973 9.86784 7.91953 10.9987 8.42661 12.033C8.85264 12.8802 9.50711 13.5913 10.316 14.0861C11.125 14.5809 12.0561 14.8396 13.0044 14.833H18.9777C19.9017 14.8471 20.8116 14.6054 21.6069 14.1348C22.4022 13.6643 23.0519 12.983 23.4844 12.1664C24.3006 10.5569 24.5779 8.72769 24.2755 6.94859Z" fill="#5F5F61"/>
</svg>
