<svg width="400" height="217" viewBox="0 0 400 217" fill="none" xmlns="http://www.w3.org/2000/svg">
<g clip-path="url(#clip0_1464_431)">
<path d="M117.711 1.58542H10.4633C5.55992 1.58542 1.58496 5.56038 1.58496 10.4637V81.3106C1.58496 86.214 5.55992 90.1889 10.4633 90.1889H117.711C122.615 90.1889 126.59 86.214 126.59 81.3106V10.4637C126.59 5.56038 122.615 1.58542 117.711 1.58542Z" fill="white" stroke="#2A78E7" stroke-width="3" stroke-miterlimit="10"/>
<path d="M116.518 79.7569V12.0174L11.6583 12.0174V79.7569H116.518Z" fill="white" stroke="#2A78E7" stroke-width="3" stroke-miterlimit="10"/>
<path d="M93.4651 70.2233C98.2401 70.2233 102.111 66.3524 102.111 61.5775C102.111 56.8026 98.2401 52.9317 93.4651 52.9317C88.6902 52.9317 84.8193 56.8026 84.8193 61.5775C84.8193 66.3524 88.6902 70.2233 93.4651 70.2233Z" fill="white" stroke="#2A78E7" stroke-width="3" stroke-linecap="round" stroke-linejoin="round"/>
<path d="M93.4651 70.2233C98.2401 70.2233 102.111 66.3524 102.111 61.5775C102.111 56.8026 98.2401 52.9317 93.4651 52.9317C88.6902 52.9317 84.8193 56.8026 84.8193 61.5775C84.8193 66.3524 88.6902 70.2233 93.4651 70.2233Z" fill="#2A78E7" stroke="#2A78E7" stroke-width="3" stroke-linecap="round" stroke-linejoin="round"/>
<path d="M93.4651 70.2233C98.2401 70.2233 102.111 66.3524 102.111 61.5775C102.111 56.8026 98.2401 52.9317 93.4651 52.9317C88.6902 52.9317 84.8193 56.8026 84.8193 61.5775C84.8193 66.3524 88.6902 70.2233 93.4651 70.2233Z" fill="#2A78E7" stroke="#2A78E7" stroke-width="3" stroke-linecap="round" stroke-linejoin="round"/>
<path d="M81.6487 70.2233C86.4237 70.2233 90.2945 66.3524 90.2945 61.5775C90.2945 56.8026 86.4237 52.9317 81.6487 52.9317C76.8738 52.9317 73.0029 56.8026 73.0029 61.5775C73.0029 66.3524 76.8738 70.2233 81.6487 70.2233Z" fill="white" stroke="#2A78E7" stroke-width="3" stroke-linecap="round" stroke-linejoin="round"/>
<path d="M38.7477 40.7346H24.0245C23.1372 40.7346 22.418 41.4538 22.418 42.3411V50.7649C22.418 51.6522 23.1372 52.3715 24.0245 52.3715H38.7477C39.635 52.3715 40.3543 51.6522 40.3543 50.7649V42.3411C40.3543 41.4538 39.635 40.7346 38.7477 40.7346Z" stroke="#2A78E7" stroke-width="3" stroke-miterlimit="10"/>
<path d="M46.0726 21.5511H22.1751C21.3287 21.5511 20.6426 22.2372 20.6426 23.0836V27.026C20.6426 27.8724 21.3287 28.5586 22.1751 28.5586H46.0726C46.919 28.5586 47.6052 27.8724 47.6052 27.026V23.0836C47.6052 22.2372 46.919 21.5511 46.0726 21.5511Z" fill="#2A78E7"/>
<path d="M105.387 21.5511H56.6729C55.488 21.5511 54.5273 22.5117 54.5273 23.6967V26.413C54.5273 27.598 55.488 28.5586 56.6729 28.5586H105.387C106.572 28.5586 107.533 27.598 107.533 26.413V23.6967C107.533 22.5117 106.572 21.5511 105.387 21.5511Z" fill="#2A78E7"/>
<path d="M160.708 101.477C165.483 101.477 169.354 97.6062 169.354 92.8313C169.354 88.0563 165.483 84.1855 160.708 84.1855C155.933 84.1855 152.062 88.0563 152.062 92.8313C152.062 97.6062 155.933 101.477 160.708 101.477Z" fill="white" stroke="#2A78E7" stroke-width="3" stroke-linecap="round" stroke-linejoin="round"/>
<path d="M160.708 101.477C165.483 101.477 169.354 97.6062 169.354 92.8313C169.354 88.0563 165.483 84.1855 160.708 84.1855C155.933 84.1855 152.062 88.0563 152.062 92.8313C152.062 97.6062 155.933 101.477 160.708 101.477Z" fill="#2A78E7" stroke="#2A78E7" stroke-width="3" stroke-linecap="round" stroke-linejoin="round"/>
<path d="M160.708 101.477C165.483 101.477 169.354 97.6062 169.354 92.8313C169.354 88.0563 165.483 84.1855 160.708 84.1855C155.933 84.1855 152.062 88.0563 152.062 92.8313C152.062 97.6062 155.933 101.477 160.708 101.477Z" fill="#2A78E7" stroke="#2A78E7" stroke-width="3" stroke-linecap="round" stroke-linejoin="round"/>
<path d="M148.892 101.477C153.667 101.477 157.538 97.6062 157.538 92.8313C157.538 88.0563 153.667 84.1855 148.892 84.1855C144.117 84.1855 140.246 88.0563 140.246 92.8313C140.246 97.6062 144.117 101.477 148.892 101.477Z" fill="white" stroke="#2A78E7" stroke-width="3" stroke-linecap="round" stroke-linejoin="round"/>
<path d="M105.99 71.9778H91.2667C90.3794 71.9778 89.6602 72.6971 89.6602 73.5843V82.0082C89.6602 82.8954 90.3794 83.6147 91.2667 83.6147H105.99C106.877 83.6147 107.596 82.8954 107.596 82.0082V73.5843C107.596 72.6971 106.877 71.9778 105.99 71.9778Z" stroke="#2A78E7" stroke-width="3" stroke-miterlimit="10"/>
<path d="M113.315 52.7943H89.4173C88.5709 52.7943 87.8848 53.4804 87.8848 54.3268V58.2692C87.8848 59.1157 88.5709 59.8018 89.4173 59.8018H113.315C114.161 59.8018 114.847 59.1157 114.847 58.2692V54.3268C114.847 53.4804 114.161 52.7943 113.315 52.7943Z" fill="#2A78E7"/>
<path d="M172.631 52.7943H123.916C122.731 52.7943 121.771 53.7549 121.771 54.9399V57.6562C121.771 58.8412 122.731 59.8018 123.916 59.8018H172.631C173.816 59.8018 174.776 58.8412 174.776 57.6562V54.9399C174.776 53.7549 173.816 52.7943 172.631 52.7943Z" fill="#2A78E7"/>
<path d="M184.954 32.8392H77.7064C72.8031 32.8392 68.8281 36.8142 68.8281 41.7175V112.564C68.8281 117.468 72.8031 121.443 77.7064 121.443H184.954C189.858 121.443 193.833 117.468 193.833 112.564V41.7175C193.833 36.8142 189.858 32.8392 184.954 32.8392Z" fill="white" stroke="#2A78E7" stroke-width="3" stroke-miterlimit="10"/>
<path d="M183.76 111.011V43.2712L78.9005 43.2712V111.011H183.76Z" fill="#2A78E7" stroke="#2A78E7" stroke-width="3" stroke-miterlimit="10"/>
<path d="M252.207 64.0824H144.959C140.056 64.0824 136.081 68.0574 136.081 72.9607V143.808C136.081 148.711 140.056 152.686 144.959 152.686H252.207C257.111 152.686 261.086 148.711 261.086 143.808V72.9607C261.086 68.0574 257.111 64.0824 252.207 64.0824Z" fill="white" stroke="#2A78E7" stroke-width="3" stroke-miterlimit="10"/>
<path d="M251.014 142.254V74.5145H146.154V142.254H251.014Z" fill="white" stroke="#2A78E7" stroke-width="3" stroke-miterlimit="10"/>
<path d="M227.961 132.731C232.736 132.731 236.607 128.86 236.607 124.085C236.607 119.31 232.736 115.439 227.961 115.439C223.186 115.439 219.315 119.31 219.315 124.085C219.315 128.86 223.186 132.731 227.961 132.731Z" fill="white" stroke="#2A78E7" stroke-width="3" stroke-linecap="round" stroke-linejoin="round"/>
<path d="M227.961 132.731C232.736 132.731 236.607 128.86 236.607 124.085C236.607 119.31 232.736 115.439 227.961 115.439C223.186 115.439 219.315 119.31 219.315 124.085C219.315 128.86 223.186 132.731 227.961 132.731Z" fill="#2A78E7" stroke="#2A78E7" stroke-width="3" stroke-linecap="round" stroke-linejoin="round"/>
<path d="M227.961 132.731C232.736 132.731 236.607 128.86 236.607 124.085C236.607 119.31 232.736 115.439 227.961 115.439C223.186 115.439 219.315 119.31 219.315 124.085C219.315 128.86 223.186 132.731 227.961 132.731Z" fill="#2A78E7" stroke="#2A78E7" stroke-width="3" stroke-linecap="round" stroke-linejoin="round"/>
<path d="M216.145 132.731C220.92 132.731 224.791 128.86 224.791 124.085C224.791 119.31 220.92 115.439 216.145 115.439C211.37 115.439 207.499 119.31 207.499 124.085C207.499 128.86 211.37 132.731 216.145 132.731Z" fill="white" stroke="#2A78E7" stroke-width="3" stroke-linecap="round" stroke-linejoin="round"/>
<path d="M173.244 103.232H158.521C157.633 103.232 156.914 103.951 156.914 104.838V113.262C156.914 114.149 157.633 114.869 158.521 114.869H173.244C174.131 114.869 174.85 114.149 174.85 113.262V104.838C174.85 103.951 174.131 103.232 173.244 103.232Z" stroke="#2A78E7" stroke-width="3" stroke-miterlimit="10"/>
<path d="M180.558 84.0481H156.66C155.814 84.0481 155.128 84.7343 155.128 85.5807V89.5231C155.128 90.3695 155.814 91.0556 156.66 91.0556H180.558C181.404 91.0556 182.091 90.3695 182.091 89.5231V85.5807C182.091 84.7343 181.404 84.0481 180.558 84.0481Z" fill="#2A78E7"/>
<path d="M239.884 84.0481H191.169C189.984 84.0481 189.023 85.0087 189.023 86.1937V88.91C189.023 90.095 189.984 91.0556 191.169 91.0556H239.884C241.069 91.0556 242.029 90.095 242.029 88.91V86.1937C242.029 85.0087 241.069 84.0481 239.884 84.0481Z" fill="#2A78E7"/>
<path d="M102.915 71.3225H88.1915C87.3042 71.3225 86.585 72.0418 86.585 72.9291V81.3529C86.585 82.2402 87.3042 82.9594 88.1915 82.9594H102.915C103.802 82.9594 104.521 82.2402 104.521 81.3529V72.9291C104.521 72.0418 103.802 71.3225 102.915 71.3225Z" fill="white" stroke="#2A78E7" stroke-width="3" stroke-miterlimit="10"/>
<path d="M250.009 52.3715H237.411C235.741 52.3715 234.388 54.1578 234.388 56.3562V94.7972C234.388 98.0314 237.157 99.9128 239.155 98.042L248.498 89.28C248.908 88.8927 249.451 88.677 250.015 88.677C250.579 88.677 251.121 88.8927 251.531 89.28L260.875 98.042C262.872 99.9128 265.641 98.042 265.641 94.7972V56.3773C265.641 54.1789 264.289 52.3927 262.619 52.3927L250.009 52.3715Z" fill="white" stroke="#2A78E7" stroke-width="2.5" stroke-miterlimit="10"/>
<path d="M254.248 68.7964C254.906 69.1946 255.447 69.7586 255.818 70.432C256.189 71.1054 256.377 71.8644 256.362 72.6331C256.349 73.919 255.984 75.1768 255.305 76.269C254.784 77.2027 254.014 77.9737 253.081 78.4962C252.148 79.0186 251.089 79.2721 250.02 79.2284C248.704 79.2929 247.411 78.8632 246.395 78.0235C245.653 77.3247 245.179 76.3891 245.054 75.3781C244.928 74.367 245.16 73.3439 245.708 72.4851C245.884 72.1977 246.129 71.9584 246.42 71.7887C246.712 71.619 247.041 71.5242 247.378 71.5128C247.562 71.5097 247.745 71.5437 247.915 71.6127C248.086 71.6817 248.241 71.7843 248.371 71.9144C248.502 72.0338 248.606 72.1791 248.677 72.3411C248.748 72.5031 248.784 72.6782 248.784 72.8551C248.758 73.215 248.687 73.5702 248.572 73.912C248.479 74.1893 248.418 74.4767 248.392 74.7681C248.388 74.9666 248.426 75.1637 248.505 75.346C248.583 75.5284 248.7 75.6918 248.847 75.8251C249.171 76.1065 249.591 76.2539 250.02 76.2373C250.419 76.2268 250.811 76.1264 251.166 75.9434C251.521 75.7603 251.83 75.4995 252.071 75.1804C252.653 74.4965 252.972 73.6267 252.969 72.7282C252.991 72.2263 252.839 71.7322 252.539 71.3296C252.238 70.927 251.808 70.6407 251.32 70.5192C250.559 70.2656 250.179 69.8322 250.179 69.2192C250.185 68.8249 250.34 68.4473 250.612 68.1623L250.887 67.8557L253.149 65.3508H250.073C248.931 65.3508 248.35 64.9491 248.35 64.1459C248.349 63.909 248.399 63.6746 248.498 63.4592C248.596 63.2438 248.741 63.0525 248.921 62.8987C249.304 62.5556 249.802 62.3705 250.316 62.3808H255.876C257.313 62.3808 257.989 62.9304 257.989 64.0085C257.994 64.5075 257.805 64.9888 257.461 65.3508L254.248 68.7964Z" fill="#2A78E7"/>
<path d="M319.451 95.3362H212.203C207.299 95.3362 203.324 99.3112 203.324 104.215V175.061C203.324 179.965 207.299 183.94 212.203 183.94H319.451C324.354 183.94 328.329 179.965 328.329 175.061V104.215C328.329 99.3112 324.354 95.3362 319.451 95.3362Z" fill="white" stroke="#2A78E7" stroke-width="3" stroke-miterlimit="10"/>
<path d="M318.256 173.508V105.768H213.397V173.508H318.256Z" fill="#2A78E7" stroke="#2A78E7" stroke-width="3" stroke-miterlimit="10"/>
<path d="M319.081 80.909H306.482C304.812 80.909 303.459 82.6952 303.459 84.8936V123.335C303.459 126.569 306.228 128.461 308.226 126.579L317.569 117.817C317.982 117.435 318.523 117.222 319.086 117.222C319.648 117.222 320.19 117.435 320.603 117.817L329.946 126.579C331.944 128.461 334.713 126.579 334.713 123.335V84.9254C334.713 82.7269 333.36 80.9407 331.7 80.9407L319.081 80.909Z" fill="white" stroke="#2A78E7" stroke-width="2.5" stroke-miterlimit="10"/>
<path d="M318.88 104.532H322.907C324.059 104.532 324.629 104.944 324.629 105.758C324.641 106.006 324.592 106.254 324.485 106.479C324.378 106.704 324.217 106.899 324.016 107.047C323.521 107.387 322.925 107.551 322.325 107.512H315.603C315.128 107.537 314.659 107.39 314.282 107.1C314.119 106.961 313.99 106.787 313.904 106.592C313.818 106.396 313.777 106.183 313.785 105.969C313.818 105.419 314.064 104.903 314.472 104.532L322.05 96.7314C322.246 96.5558 322.405 96.3429 322.518 96.1051C322.63 95.8674 322.694 95.6096 322.706 95.3468C322.707 95.1329 322.663 94.9212 322.575 94.7261C322.488 94.5309 322.359 94.3569 322.198 94.2159C322.039 94.0603 321.851 93.9381 321.644 93.8565C321.437 93.7748 321.216 93.7353 320.994 93.7402C320.764 93.7351 320.535 93.7755 320.321 93.8589C320.107 93.9423 319.912 94.0672 319.746 94.2264C319.584 94.3757 319.456 94.5572 319.368 94.7592C319.281 94.9613 319.237 95.1795 319.239 95.3996C319.256 95.8169 319.376 96.2236 319.588 96.5834C319.785 96.9014 319.895 97.2662 319.905 97.6404C319.912 97.8451 319.878 98.0492 319.803 98.2401C319.728 98.431 319.616 98.6045 319.472 98.7502C319.322 98.8944 319.144 99.0071 318.95 99.0815C318.756 99.156 318.549 99.1906 318.341 99.1835C317.99 99.1754 317.648 99.0803 317.343 98.9069C317.039 98.7335 316.782 98.4871 316.597 98.19C316.099 97.4752 315.847 96.6186 315.878 95.7484C315.863 95.0779 315.992 94.412 316.256 93.7956C316.52 93.1793 316.914 92.6269 317.41 92.176C317.916 91.6963 318.512 91.3214 319.163 91.0729C319.814 90.8244 320.508 90.7071 321.205 90.7279C322.506 90.6811 323.775 91.1394 324.746 92.0069C325.205 92.4231 325.567 92.9352 325.806 93.5069C326.045 94.0786 326.156 94.6959 326.13 95.3151C326.127 95.9454 325.997 96.5687 325.749 97.1479C325.5 97.7272 325.137 98.2504 324.682 98.6867L318.88 104.532Z" fill="#2A78E7"/>
<path d="M386.703 126.59H279.455C274.552 126.59 270.577 130.565 270.577 135.468V206.315C270.577 211.219 274.552 215.194 279.455 215.194H386.703C391.607 215.194 395.582 211.219 395.582 206.315V135.468C395.582 130.565 391.607 126.59 386.703 126.59Z" fill="white" stroke="#2A78E7" stroke-width="3" stroke-miterlimit="10"/>
<path d="M385.499 204.762V137.022H280.639V204.762H385.499Z" fill="white" stroke="#2A78E7" stroke-width="3" stroke-miterlimit="10"/>
<path d="M364.666 195.344C369.441 195.344 373.312 191.473 373.312 186.698C373.312 181.923 369.441 178.053 364.666 178.053C359.891 178.053 356.021 181.923 356.021 186.698C356.021 191.473 359.891 195.344 364.666 195.344Z" fill="white" stroke="#2A78E7" stroke-width="3" stroke-linecap="round" stroke-linejoin="round"/>
<path d="M364.666 195.344C369.441 195.344 373.312 191.473 373.312 186.698C373.312 181.923 369.441 178.053 364.666 178.053C359.891 178.053 356.021 181.923 356.021 186.698C356.021 191.473 359.891 195.344 364.666 195.344Z" fill="#2A78E7" stroke="#2A78E7" stroke-width="3" stroke-linecap="round" stroke-linejoin="round"/>
<path d="M364.666 195.344C369.441 195.344 373.312 191.473 373.312 186.698C373.312 181.923 369.441 178.053 364.666 178.053C359.891 178.053 356.021 181.923 356.021 186.698C356.021 191.473 359.891 195.344 364.666 195.344Z" fill="#2A78E7" stroke="#2A78E7" stroke-width="3" stroke-linecap="round" stroke-linejoin="round"/>
<path d="M352.85 195.344C357.625 195.344 361.496 191.473 361.496 186.698C361.496 181.923 357.625 178.053 352.85 178.053C348.075 178.053 344.204 181.923 344.204 186.698C344.204 191.473 348.075 195.344 352.85 195.344Z" fill="white" stroke="#2A78E7" stroke-width="3" stroke-linecap="round" stroke-linejoin="round"/>
<path d="M309.959 165.855H295.235C294.348 165.855 293.629 166.575 293.629 167.462V175.886C293.629 176.773 294.348 177.492 295.235 177.492H309.959C310.846 177.492 311.565 176.773 311.565 175.886V167.462C311.565 166.575 310.846 165.855 309.959 165.855Z" stroke="#2A78E7" stroke-width="3" stroke-miterlimit="10"/>
<path d="M317.273 146.672H293.375C292.529 146.672 291.843 147.358 291.843 148.204V152.147C291.843 152.993 292.529 153.679 293.375 153.679H317.273C318.119 153.679 318.805 152.993 318.805 152.147V148.204C318.805 147.358 318.119 146.672 317.273 146.672Z" fill="#2A78E7"/>
<path d="M376.589 146.672H327.874C326.689 146.672 325.729 147.633 325.729 148.818V151.534C325.729 152.719 326.689 153.679 327.874 153.679H376.589C377.774 153.679 378.734 152.719 378.734 151.534V148.818C378.734 147.633 377.774 146.672 376.589 146.672Z" fill="#2A78E7"/>
<path d="M384.368 114.182H371.758C370.099 114.182 368.746 115.968 368.746 118.166V156.607C368.746 159.841 371.515 161.723 373.513 159.852L382.856 151.09C383.266 150.703 383.809 150.487 384.373 150.487C384.937 150.487 385.48 150.703 385.89 151.09L395.233 159.852C397.231 161.723 399.989 159.852 399.989 156.607V118.166C399.989 115.968 398.647 114.182 396.977 114.182H384.368Z" fill="#2A78E7"/>
<path d="M385.425 127.108H384.484C383.332 127.108 382.75 126.696 382.75 125.882C382.738 125.63 382.787 125.379 382.894 125.15C383.001 124.922 383.162 124.723 383.363 124.571C383.862 124.23 384.462 124.066 385.065 124.106H387.782C388.838 124.106 389.409 124.54 389.409 125.417C389.393 125.721 389.317 126.019 389.187 126.294L384.008 139.041C383.501 140.288 382.793 140.922 381.894 140.922C381.713 140.927 381.533 140.896 381.365 140.831C381.196 140.765 381.042 140.667 380.911 140.542C380.785 140.427 380.684 140.286 380.614 140.13C380.545 139.973 380.51 139.804 380.51 139.633C380.522 139.312 380.594 138.997 380.721 138.703L380.869 138.333L385.425 127.108Z" fill="white"/>
<path d="M236.3 133.82H221.577C220.69 133.82 219.971 134.539 219.971 135.426V143.85C219.971 144.737 220.69 145.456 221.577 145.456H236.3C237.188 145.456 237.907 144.737 237.907 143.85V135.426C237.907 134.539 237.188 133.82 236.3 133.82Z" fill="white" stroke="#2A78E7" stroke-width="3" stroke-miterlimit="10"/>
</g>
<defs>
<clipPath id="clip0_1464_431">
<rect width="400" height="216.779" fill="white"/>
</clipPath>
</defs>
</svg>
