<svg width="420" height="329" viewBox="0 0 420 329" fill="none" xmlns="http://www.w3.org/2000/svg">
<g clip-path="url(#clip0_1464_54)">
<path d="M303.54 164.78V91.32C303.54 83.2401 296.99 76.69 288.91 76.69L173.54 76.69C165.46 76.69 158.91 83.2401 158.91 91.32V164.78C158.91 172.86 165.46 179.41 173.54 179.41H288.91C296.99 179.41 303.54 172.86 303.54 164.78Z" fill="white" stroke="#2A78E7" stroke-width="3" stroke-miterlimit="10"/>
<path d="M288.91 81.95H173.54C168.36 81.95 164.16 86.1496 164.16 91.33V164.79C164.16 169.97 168.36 174.17 173.54 174.17H288.91C294.091 174.17 298.29 169.97 298.29 164.79V91.33C298.29 86.1496 294.091 81.95 288.91 81.95Z" fill="#2A78E7"/>
<path d="M267.49 256.43H170.61C169.337 256.432 168.08 256.143 166.935 255.587C165.79 255.031 164.786 254.222 164 253.22L133.76 214.63C132.786 213.39 132.18 211.902 132.013 210.334C131.845 208.767 132.121 207.184 132.811 205.766C133.501 204.348 134.575 203.153 135.912 202.317C137.249 201.482 138.794 201.039 140.37 201.04H237.29C238.564 201.04 239.821 201.331 240.966 201.888C242.111 202.446 243.114 203.257 243.9 204.26L274.14 242.85C275.117 244.091 275.724 245.583 275.891 247.154C276.058 248.725 275.778 250.311 275.083 251.73C274.388 253.149 273.307 254.343 271.964 255.174C270.621 256.006 269.07 256.441 267.49 256.43Z" fill="white" stroke="#2A78E7" stroke-width="3" stroke-miterlimit="10"/>
<mask id="mask0_1464_54" style="mask-type:luminance" maskUnits="userSpaceOnUse" x="131" y="201" width="145" height="56">
<path d="M267.49 256.43H170.61C169.337 256.432 168.08 256.143 166.935 255.587C165.79 255.031 164.786 254.222 164 253.22L133.76 214.63C132.786 213.39 132.18 211.902 132.013 210.334C131.845 208.767 132.121 207.184 132.811 205.766C133.501 204.348 134.575 203.153 135.912 202.317C137.249 201.482 138.794 201.039 140.37 201.04H237.29C238.564 201.04 239.821 201.331 240.966 201.888C242.111 202.446 243.114 203.257 243.9 204.26L274.14 242.85C275.117 244.091 275.724 245.583 275.891 247.154C276.058 248.725 275.778 250.311 275.083 251.73C274.388 253.149 273.307 254.343 271.964 255.174C270.621 256.006 269.07 256.441 267.49 256.43Z" fill="white"/>
</mask>
<g mask="url(#mask0_1464_54)">
<path d="M327.61 216.89L139.1 218.53C134.1 218.53 129.34 218.45 126.24 218.19L67.3598 213.19C58.9498 212.48 66.5798 211.26 80.1998 211.14L268.72 209.49C273.72 209.49 278.48 209.58 281.58 209.84L340.46 214.84C348.87 215.55 341.24 216.77 327.61 216.89Z" fill="#2A78E7" stroke="#2A78E7" stroke-width="3" stroke-miterlimit="10"/>
</g>
<path d="M215.15 326.79L122.61 314.33C120.933 314.103 119.364 313.375 118.108 312.241C116.852 311.107 115.968 309.62 115.571 307.975C115.174 306.33 115.284 304.603 115.885 303.021C116.486 301.44 117.551 300.076 118.94 299.11L156.81 272.82C158.532 271.62 160.641 271.11 162.72 271.39L255.25 283.85C256.927 284.077 258.497 284.805 259.753 285.939C261.009 287.073 261.893 288.56 262.29 290.205C262.686 291.85 262.577 293.577 261.976 295.158C261.375 296.74 260.31 298.104 258.92 299.07L221.05 325.36C219.332 326.557 217.227 327.067 215.15 326.79Z" fill="white" stroke="#2A78E7" stroke-width="3" stroke-miterlimit="10"/>
<mask id="mask1_1464_54" style="mask-type:luminance" maskUnits="userSpaceOnUse" x="115" y="271" width="148" height="56">
<path d="M215.15 326.79L122.61 314.33C120.933 314.103 119.364 313.375 118.108 312.241C116.852 311.107 115.968 309.62 115.571 307.975C115.174 306.33 115.284 304.603 115.885 303.021C116.486 301.44 117.551 300.076 118.94 299.11L156.81 272.82C158.532 271.62 160.641 271.11 162.72 271.39L255.25 283.85C256.927 284.077 258.497 284.805 259.753 285.939C261.009 287.073 261.893 288.56 262.29 290.205C262.686 291.85 262.577 293.577 261.976 295.158C261.375 296.74 260.31 298.104 258.92 299.07L221.05 325.36C219.332 326.557 217.227 327.067 215.15 326.79Z" fill="white"/>
</mask>
<g mask="url(#mask1_1464_54)">
<path d="M238.07 299.33L84.5204 278.66C71.9104 276.97 66.1004 274.57 75.5204 274.95L132.17 277.25C134.75 277.36 138.09 277.67 141.54 278.14L295.11 298.81C307.72 300.5 313.52 302.9 304.11 302.52L247.45 300.22C244.87 300.11 241.52 299.8 238.07 299.33Z" fill="#2A78E7" stroke="#2A78E7" stroke-width="3" stroke-miterlimit="10"/>
</g>
<path d="M152.35 289.36H61.2796C59.5339 289.359 57.832 288.814 56.4104 287.8C54.9889 286.787 53.9183 285.356 53.3475 283.707C52.7767 282.057 52.734 280.27 53.2255 278.595C53.7169 276.92 54.718 275.44 56.0896 274.36L97.6096 241.75C99.091 240.59 100.918 239.96 102.8 239.96H193.87C195.618 239.955 197.324 240.497 198.75 241.509C200.176 242.522 201.249 243.954 201.821 245.607C202.393 247.259 202.434 249.049 201.939 250.726C201.444 252.403 200.437 253.883 199.06 254.96L157.57 287.56C156.083 288.733 154.243 289.368 152.35 289.36Z" fill="white" stroke="#2A78E7" stroke-width="3" stroke-miterlimit="10"/>
<path d="M59.9499 284.5C59.2823 284.499 58.6314 284.291 58.0875 283.904C57.5435 283.516 57.1333 282.97 56.9137 282.339C56.694 281.709 56.6757 281.026 56.8614 280.385C57.047 279.743 57.4274 279.176 57.9499 278.76L100.27 245.5C100.842 245.056 101.546 244.817 102.27 244.82H195.16C195.83 244.815 196.486 245.02 197.034 245.406C197.582 245.792 197.995 246.341 198.216 246.974C198.436 247.607 198.453 248.293 198.264 248.936C198.074 249.58 197.688 250.147 197.16 250.56L154.83 283.81C154.259 284.257 153.555 284.5 152.83 284.5H59.9499Z" fill="#2A78E7" stroke="white" stroke-width="3" stroke-miterlimit="10"/>
<mask id="mask2_1464_54" style="mask-type:luminance" maskUnits="userSpaceOnUse" x="58" y="245" width="139" height="40">
<path d="M61.2798 284.11C60.6193 284.122 59.9717 283.927 59.4285 283.551C58.8854 283.175 58.4741 282.637 58.253 282.015C58.0319 281.393 58.0121 280.716 58.1963 280.082C58.3806 279.448 58.7596 278.887 59.2798 278.48L100.78 245.88C101.334 245.448 102.017 245.212 102.72 245.21H193.79C194.448 245.2 195.092 245.397 195.633 245.773C196.173 246.148 196.582 246.684 196.803 247.304C197.024 247.924 197.045 248.597 196.863 249.23C196.681 249.862 196.306 250.422 195.79 250.83L154.3 283.43C153.742 283.862 153.056 284.098 152.35 284.1L61.2798 284.11Z" fill="white"/>
</mask>
<g mask="url(#mask2_1464_54)">
<path d="M266.11 261.13H0L5.99 252.44H272.1L266.11 261.13Z" fill="white"/>
</g>
<path d="M369.35 307.32L276.61 322.97C274.461 323.329 272.257 322.842 270.46 321.61L237.96 299.33C236.58 298.383 235.514 297.045 234.899 295.488C234.285 293.931 234.149 292.226 234.51 290.592C234.871 288.957 235.712 287.468 236.926 286.315C238.139 285.162 239.669 284.398 241.32 284.12L334.11 268.48C336.257 268.113 338.463 268.598 340.26 269.83L372.71 292.11C374.09 293.057 375.156 294.395 375.77 295.952C376.385 297.509 376.521 299.214 376.16 300.848C375.798 302.483 374.957 303.972 373.744 305.125C372.531 306.278 371.001 307.043 369.35 307.32Z" fill="white" stroke="#2A78E7" stroke-width="3" stroke-miterlimit="10"/>
<path d="M274.61 318.27C273.961 318.272 273.326 318.077 272.79 317.71L239.61 294.99C239.085 294.626 238.68 294.113 238.446 293.518C238.213 292.922 238.163 292.271 238.301 291.647C238.439 291.023 238.76 290.454 239.223 290.013C239.686 289.571 240.27 289.278 240.9 289.17L335.55 273.17C335.727 273.155 335.904 273.155 336.08 273.17C336.73 273.168 337.364 273.363 337.9 273.73L371.02 296.43C371.547 296.792 371.953 297.303 372.188 297.897C372.422 298.491 372.474 299.142 372.337 299.766C372.199 300.39 371.879 300.959 371.416 301.4C370.954 301.84 370.37 302.133 369.74 302.24L275.09 318.24C274.931 318.262 274.771 318.273 274.61 318.27Z" fill="#2A78E7" stroke="white" stroke-width="3" stroke-miterlimit="10"/>
<path d="M342.21 269.9H243.74C242.242 269.898 240.771 269.495 239.481 268.734C238.19 267.973 237.126 266.881 236.399 265.57C235.672 264.26 235.308 262.779 235.345 261.281C235.383 259.783 235.819 258.323 236.61 257.05L258.33 222.21C259.08 220.991 260.128 219.984 261.376 219.284C262.624 218.584 264.03 218.214 265.46 218.21H363.93C365.429 218.21 366.899 218.611 368.191 219.371C369.482 220.131 370.546 221.222 371.273 222.532C372.001 223.842 372.365 225.322 372.327 226.82C372.29 228.318 371.852 229.778 371.06 231.05L349.34 265.9C348.591 267.119 347.543 268.126 346.295 268.826C345.047 269.526 343.641 269.896 342.21 269.9Z" fill="white" stroke="#2A78E7" stroke-width="3" stroke-miterlimit="10"/>
<mask id="mask3_1464_54" style="mask-type:luminance" maskUnits="userSpaceOnUse" x="235" y="218" width="138" height="52">
<path d="M342.21 269.9H243.74C242.242 269.898 240.771 269.495 239.481 268.734C238.19 267.973 237.126 266.881 236.399 265.57C235.672 264.26 235.308 262.779 235.345 261.281C235.383 259.783 235.819 258.323 236.61 257.05L258.33 222.21C259.08 220.991 260.128 219.984 261.376 219.284C262.624 218.584 264.03 218.214 265.46 218.21H363.93C365.429 218.21 366.899 218.611 368.191 219.371C369.482 220.131 370.546 221.222 371.273 222.532C372.001 223.842 372.365 225.322 372.327 226.82C372.29 228.318 371.852 229.778 371.06 231.05L349.34 265.9C348.591 267.119 347.543 268.126 346.295 268.826C345.047 269.526 343.641 269.896 342.21 269.9Z" fill="white"/>
</mask>
<g mask="url(#mask3_1464_54)">
<path d="M367.851 237.68L203.491 236.25C192.491 236.15 185.781 234.68 191.611 233.64L227.921 227.18C231.866 226.638 235.849 226.413 239.831 226.51L404.181 227.95C415.181 228.04 421.891 229.51 416.061 230.55L379.751 237.02C375.807 237.553 371.828 237.774 367.851 237.68Z" fill="#2A78E7" stroke="#2A78E7" stroke-width="3" stroke-miterlimit="10"/>
</g>
<path d="M272.1 164.33C277.75 164.33 282.33 159.75 282.33 154.1C282.33 148.45 277.75 143.87 272.1 143.87C266.45 143.87 261.87 148.45 261.87 154.1C261.87 159.75 266.45 164.33 272.1 164.33Z" fill="white" stroke="#2A78E7" stroke-width="3" stroke-linecap="round" stroke-linejoin="round"/>
<path d="M272.1 164.33C277.75 164.33 282.33 159.75 282.33 154.1C282.33 148.45 277.75 143.87 272.1 143.87C266.45 143.87 261.87 148.45 261.87 154.1C261.87 159.75 266.45 164.33 272.1 164.33Z" fill="#2A78E7" stroke="white" stroke-width="3" stroke-linecap="round" stroke-linejoin="round"/>
<path d="M258.13 164.33C263.78 164.33 268.36 159.75 268.36 154.1C268.36 148.45 263.78 143.87 258.13 143.87C252.481 143.87 247.9 148.45 247.9 154.1C247.9 159.75 252.481 164.33 258.13 164.33Z" fill="white"/>
<path d="M253.61 95.68H179.8C179.513 95.68 179.28 95.9128 179.28 96.2V101.46C179.28 101.747 179.513 101.98 179.8 101.98H253.61C253.897 101.98 254.13 101.747 254.13 101.46V96.2C254.13 95.9128 253.897 95.68 253.61 95.68Z" fill="white"/>
<path d="M285.76 95.68H260.18C260.009 95.68 259.87 95.8188 259.87 95.99V101.67C259.87 101.841 260.009 101.98 260.18 101.98H285.76C285.931 101.98 286.07 101.841 286.07 101.67V95.99C286.07 95.8188 285.931 95.68 285.76 95.68Z" fill="white"/>
<path d="M200.63 125.65H181.38C180.22 125.65 179.28 126.59 179.28 127.75V138.77C179.28 139.93 180.22 140.87 181.38 140.87H200.63C201.79 140.87 202.73 139.93 202.73 138.77V127.75C202.73 126.59 201.79 125.65 200.63 125.65Z" fill="white"/>
<path d="M342.21 269.9H243.74C242.242 269.898 240.771 269.495 239.481 268.734C238.19 267.973 237.126 266.881 236.399 265.57C235.672 264.26 235.308 262.779 235.345 261.281C235.383 259.783 235.819 258.323 236.61 257.05L258.33 222.21C259.08 220.991 260.128 219.984 261.376 219.284C262.624 218.584 264.03 218.214 265.46 218.21H363.93C365.429 218.21 366.899 218.611 368.191 219.371C369.482 220.131 370.546 221.222 371.273 222.532C372.001 223.842 372.365 225.322 372.327 226.82C372.29 228.318 371.852 229.778 371.06 231.05L349.34 265.9C348.591 267.119 347.543 268.126 346.295 268.826C345.047 269.526 343.641 269.896 342.21 269.9Z" stroke="#2A78E7" stroke-width="3" stroke-miterlimit="10"/>
<path d="M298.26 59.43H268.32" stroke="#2A78E7" stroke-width="4" stroke-miterlimit="10" stroke-linecap="round"/>
<path d="M274.92 15.89L253.74 37.06" stroke="#2A78E7" stroke-width="4" stroke-miterlimit="10" stroke-linecap="round"/>
<path d="M231.08 2V31.94" stroke="#2A78E7" stroke-width="4" stroke-miterlimit="10" stroke-linecap="round"/>
<path d="M187.34 15.89L208.51 37.06" stroke="#2A78E7" stroke-width="4" stroke-miterlimit="10" stroke-linecap="round"/>
<path d="M164.2 59.72H194.14" stroke="#2A78E7" stroke-width="4" stroke-miterlimit="10" stroke-linecap="round"/>
<mask id="mask4_1464_54" style="mask-type:luminance" maskUnits="userSpaceOnUse" x="239" y="273" width="133" height="45">
<path d="M275.16 317.83C274.524 317.831 273.904 317.639 273.38 317.28L240.93 295C240.414 294.644 240.015 294.143 239.785 293.56C239.556 292.976 239.505 292.338 239.641 291.726C239.776 291.114 240.091 290.556 240.545 290.124C240.999 289.692 241.572 289.405 242.19 289.3L334.98 273.65C335.787 273.522 336.612 273.704 337.29 274.16L369.73 296.43C370.251 296.782 370.654 297.282 370.887 297.866C371.12 298.45 371.173 299.09 371.038 299.704C370.904 300.318 370.588 300.878 370.132 301.31C369.676 301.743 369.1 302.028 368.48 302.13L275.68 317.78C275.508 317.812 275.334 317.828 275.16 317.83Z" fill="white"/>
</mask>
<g mask="url(#mask4_1464_54)">
<path d="M378.05 279.9L220.81 307.82L220.76 301.83L377.99 273.91L378.05 279.9Z" fill="white" stroke="white" stroke-width="3" stroke-miterlimit="10"/>
</g>
</g>
<defs>
<clipPath id="clip0_1464_54">
<rect width="419.71" height="328.36" fill="white"/>
</clipPath>
</defs>
</svg>
