<svg width="308" height="202" viewBox="0 0 308 202" fill="none" xmlns="http://www.w3.org/2000/svg">
<g clip-path="url(#clip0_1464_328)">
<path d="M187.49 104.83H121.25C112.966 104.83 106.25 111.546 106.25 119.83V186.07C106.25 194.354 112.966 201.07 121.25 201.07H187.49C195.774 201.07 202.49 194.354 202.49 186.07V119.83C202.49 111.546 195.774 104.83 187.49 104.83Z" fill="#2A78E7"/>
<path d="M195.33 184.42V121.49C195.33 116.243 191.077 111.99 185.83 111.99H122.9C117.653 111.99 113.4 116.243 113.4 121.49V184.42C113.4 189.667 117.653 193.92 122.9 193.92H185.83C191.077 193.92 195.33 189.667 195.33 184.42Z" stroke="white" stroke-width="2.5" stroke-miterlimit="10"/>
<path d="M81.99 0.75H15.75C7.46573 0.75 0.75 7.46573 0.75 15.75V81.99C0.75 90.2743 7.46573 96.99 15.75 96.99H81.99C90.2743 96.99 96.99 90.2743 96.99 81.99V15.75C96.99 7.46573 90.2743 0.75 81.99 0.75Z" fill="#2A78E7"/>
<path d="M89.8301 80.33V17.4C89.8301 12.1533 85.5768 7.89999 80.3301 7.89999L17.4001 7.89999C12.1534 7.89999 7.90009 12.1533 7.90009 17.4V80.33C7.90009 85.5767 12.1534 89.83 17.4001 89.83H80.3301C85.5768 89.83 89.8301 85.5767 89.8301 80.33Z" stroke="white" stroke-width="2.5" stroke-miterlimit="10"/>
<path d="M187.49 0.75H121.25C112.966 0.75 106.25 7.46573 106.25 15.75V81.99C106.25 90.2743 112.966 96.99 121.25 96.99H187.49C195.774 96.99 202.49 90.2743 202.49 81.99V15.75C202.49 7.46573 195.774 0.75 187.49 0.75Z" stroke="#2A78E7" stroke-width="1.5" stroke-miterlimit="10"/>
<path d="M195.33 80.34V17.41C195.33 12.1633 191.077 7.91 185.83 7.91L122.9 7.91C117.653 7.91 113.4 12.1633 113.4 17.41V80.34C113.4 85.5867 117.653 89.84 122.9 89.84H185.83C191.077 89.84 195.33 85.5867 195.33 80.34Z" stroke="#2A78E7" stroke-width="2" stroke-miterlimit="10"/>
<path d="M293 0.75H226.76C218.475 0.75 211.76 7.46573 211.76 15.75V81.99C211.76 90.2743 218.475 96.99 226.76 96.99H293C301.284 96.99 308 90.2743 308 81.99V15.75C308 7.46573 301.284 0.75 293 0.75Z" fill="#2A78E7"/>
<path d="M300.84 80.33V17.4C300.84 12.1533 296.587 7.89999 291.34 7.89999L228.41 7.89999C223.163 7.89999 218.91 12.1533 218.91 17.4V80.33C218.91 85.5767 223.163 89.83 228.41 89.83H291.34C296.587 89.83 300.84 85.5767 300.84 80.33Z" stroke="white" stroke-width="2.5" stroke-miterlimit="10"/>
<path d="M81.99 104.83H15.75C7.46573 104.83 0.75 111.546 0.75 119.83V186.07C0.75 194.354 7.46573 201.07 15.75 201.07H81.99C90.2743 201.07 96.99 194.354 96.99 186.07V119.83C96.99 111.546 90.2743 104.83 81.99 104.83Z" stroke="#2A78E7" stroke-width="1.5" stroke-miterlimit="10"/>
<path d="M89.8301 184.41V121.48C89.8301 116.233 85.5768 111.98 80.3301 111.98H17.4001C12.1534 111.98 7.90007 116.233 7.90007 121.48V184.41C7.90007 189.657 12.1534 193.91 17.4001 193.91H80.3301C85.5768 193.91 89.8301 189.657 89.8301 184.41Z" stroke="#2A78E7" stroke-width="2.5" stroke-miterlimit="10"/>
<path d="M293 104.83H226.76C218.475 104.83 211.76 111.546 211.76 119.83V186.07C211.76 194.354 218.475 201.07 226.76 201.07H293C301.284 201.07 308 194.354 308 186.07V119.83C308 111.546 301.284 104.83 293 104.83Z" fill="#2A78E7"/>
<path d="M300.84 184.41V121.48C300.84 116.233 296.587 111.98 291.34 111.98H228.41C223.163 111.98 218.91 116.233 218.91 121.48V184.41C218.91 189.657 223.163 193.91 228.41 193.91H291.34C296.587 193.91 300.84 189.657 300.84 184.41Z" stroke="white" stroke-width="2.5" stroke-miterlimit="10"/>
<path d="M66.6404 32.21H31.0904C29.7649 32.21 28.6904 33.2845 28.6904 34.61V76.15C28.6904 77.4755 29.7649 78.55 31.0904 78.55H66.6404C67.9659 78.55 69.0404 77.4755 69.0404 76.15V34.61C69.0404 33.2845 67.9659 32.21 66.6404 32.21Z" fill="white" stroke="#2A78E7" stroke-width="2" stroke-miterlimit="10"/>
<path d="M39.71 40.23V28.23C39.71 25.8431 40.6582 23.5539 42.346 21.866C44.0338 20.1782 46.323 19.23 48.71 19.23H49.02C51.4069 19.23 53.6961 20.1782 55.3839 21.866C57.0718 23.5539 58.02 25.8431 58.02 28.23V40.23" fill="#2A78E7"/>
<path d="M39.71 40.23V28.23C39.71 25.8431 40.6582 23.5539 42.346 21.866C44.0338 20.1782 46.323 19.23 48.71 19.23H49.02C51.4069 19.23 53.6961 20.1782 55.3839 21.866C57.0718 23.5539 58.02 25.8431 58.02 28.23V40.23" stroke="white" stroke-width="2" stroke-miterlimit="10"/>
<path d="M137.37 152.16H171.37V173C171.37 173.955 170.991 174.87 170.316 175.546C169.641 176.221 168.725 176.6 167.77 176.6H141C140.045 176.6 139.13 176.221 138.455 175.546C137.779 174.87 137.4 173.955 137.4 173V152.16H137.37Z" fill="white" stroke="#2A78E7" stroke-width="2" stroke-linecap="round" stroke-linejoin="round"/>
<path d="M172.35 141.74H136.4C134.412 141.74 132.8 143.352 132.8 145.34V148.51C132.8 150.498 134.412 152.11 136.4 152.11H172.35C174.338 152.11 175.95 150.498 175.95 148.51V145.34C175.95 143.352 174.338 141.74 172.35 141.74Z" fill="white" stroke="#2A78E7" stroke-width="2" stroke-linecap="round" stroke-linejoin="round"/>
<path d="M161.68 141.74H147.08V176.57H161.68V141.74Z" fill="white" stroke="#2A78E7" stroke-width="2" stroke-linecap="round" stroke-linejoin="round"/>
<path d="M143.06 131.61C142.69 131.841 142.389 132.166 142.186 132.552C141.983 132.937 141.886 133.37 141.906 133.805C141.925 134.241 142.06 134.663 142.296 135.03C142.532 135.396 142.861 135.693 143.25 135.89L154.51 141.65L149.03 132.96C148.727 132.474 148.331 132.054 147.865 131.723C147.398 131.391 146.87 131.156 146.312 131.031C145.754 130.905 145.176 130.892 144.613 130.991C144.05 131.09 143.511 131.301 143.03 131.61H143.06Z" fill="#2A78E7" stroke="white" stroke-width="2" stroke-linecap="round" stroke-linejoin="round"/>
<path d="M165.68 131.61C166.05 131.841 166.352 132.166 166.555 132.552C166.757 132.937 166.854 133.37 166.835 133.805C166.815 134.241 166.681 134.663 166.445 135.03C166.208 135.396 165.879 135.693 165.49 135.89L154.23 141.65L159.71 132.96C160.013 132.474 160.409 132.054 160.876 131.723C161.342 131.391 161.87 131.156 162.428 131.031C162.986 130.905 163.564 130.892 164.127 130.991C164.691 131.09 165.229 131.301 165.71 131.61H165.68Z" fill="#2A78E7" stroke="white" stroke-width="2" stroke-linecap="round" stroke-linejoin="round"/>
<path d="M172.35 141.74H136.4C134.412 141.74 132.8 143.352 132.8 145.34V148.51C132.8 150.498 134.412 152.11 136.4 152.11H172.35C174.338 152.11 175.95 150.498 175.95 148.51V145.34C175.95 143.352 174.338 141.74 172.35 141.74Z" stroke="#2A78E7" stroke-width="2" stroke-linecap="round" stroke-linejoin="round"/>
<path d="M179.88 35.57H128.86C127.534 35.57 126.46 36.6445 126.46 37.97V59.62C126.46 60.9455 127.534 62.02 128.86 62.02H179.88C181.205 62.02 182.28 60.9455 182.28 59.62V37.97C182.28 36.6445 181.205 35.57 179.88 35.57Z" fill="#2A78E7" stroke="#2A78E7" stroke-width="2" stroke-miterlimit="10"/>
<path d="M140.79 35.57V37.07" stroke="white" stroke-width="2" stroke-miterlimit="10"/>
<path d="M140.79 40.44V58.98" stroke="white" stroke-width="2" stroke-miterlimit="10" stroke-dasharray="3.37 3.37"/>
<path d="M140.79 60.66V62.16" stroke="white" stroke-width="2" stroke-miterlimit="10"/>
<path d="M169.73 48.36L171.82 43.51C171.822 43.4079 171.794 43.3074 171.738 43.222C171.682 43.1366 171.601 43.0703 171.506 43.0322C171.412 42.9941 171.308 42.9859 171.208 43.0087C171.108 43.0316 171.018 43.0844 170.95 43.16L167.56 46.72L161.56 46.37L164.25 39.66C164.251 39.4588 164.192 39.262 164.079 39.0951C163.967 38.9282 163.807 38.7991 163.62 38.7246C163.433 38.65 163.228 38.6336 163.032 38.6774C162.836 38.7212 162.657 38.8231 162.52 38.97L155.85 46.05L151.16 45.78C150.807 45.7611 150.454 45.8136 150.122 45.9341C149.79 46.0547 149.485 46.2409 149.227 46.4817C148.968 46.7225 148.761 47.0129 148.617 47.3357C148.473 47.6584 148.396 48.0067 148.39 48.36V48.41C148.389 48.7675 148.462 49.1213 148.602 49.4499C148.743 49.7784 148.95 50.0748 149.209 50.321C149.468 50.5671 149.775 50.7578 150.11 50.8815C150.446 51.0051 150.803 51.059 151.16 51.04L155.94 50.76L162.52 57.76C162.657 57.9068 162.836 58.0088 163.032 58.0526C163.228 58.0964 163.433 58.0799 163.62 58.0054C163.807 57.9309 163.967 57.8018 164.079 57.6349C164.192 57.468 164.251 57.2711 164.25 57.07L161.6 50.45L167.6 50.1L170.99 53.67C171.06 53.7405 171.15 53.7887 171.248 53.8086C171.346 53.8285 171.447 53.8193 171.54 53.782C171.633 53.7447 171.712 53.6811 171.769 53.599C171.826 53.5168 171.857 53.4198 171.86 53.32L169.73 48.36Z" fill="white"/>
<path d="M68.0299 169H32.6699V164.92" fill="white"/>
<path d="M68.0299 169H32.6699V164.92" stroke="#2A78E7" stroke-width="2" stroke-linecap="round" stroke-linejoin="round"/>
<path d="M35.4098 178.15C37.5416 178.15 39.2698 176.422 39.2698 174.29C39.2698 172.158 37.5416 170.43 35.4098 170.43C33.278 170.43 31.5498 172.158 31.5498 174.29C31.5498 176.422 33.278 178.15 35.4098 178.15Z" fill="white" stroke="#2A78E7" stroke-width="3" stroke-linecap="round" stroke-linejoin="round"/>
<path d="M64.1803 178.15C66.3121 178.15 68.0403 176.422 68.0403 174.29C68.0403 172.158 66.3121 170.43 64.1803 170.43C62.0485 170.43 60.3203 172.158 60.3203 174.29C60.3203 176.422 62.0485 178.15 64.1803 178.15Z" fill="white" stroke="#2A78E7" stroke-width="3" stroke-linecap="round" stroke-linejoin="round"/>
<path d="M70.0699 138.6L29.3799 138.37V146.9H70.0699V138.6Z" stroke="#2A78E7" stroke-width="3" stroke-linecap="round" stroke-linejoin="round"/>
<path d="M29.3799 146.9L32.7399 164.72L39.4999 163.46V146.9V163.46L49.6899 162.19V146.9V162.19L59.8799 160.93V146.9V160.93L67.8299 159.66L70.0699 146.9H29.3799Z" fill="white" stroke="#2A78E7" stroke-width="2.5" stroke-linecap="round" stroke-linejoin="round"/>
<path d="M21.6699 127.75H29.3799V138.65" fill="white"/>
<path d="M21.6699 127.75H29.3799V138.65" stroke="#2A78E7" stroke-width="2.5" stroke-linecap="round" stroke-linejoin="round"/>
<path d="M254.86 54.42C254.86 52.8239 253.566 51.53 251.97 51.53C250.374 51.53 249.08 52.8239 249.08 54.42V66.97C249.08 68.5661 250.374 69.86 251.97 69.86C253.566 69.86 254.86 68.5661 254.86 66.97V54.42Z" fill="white" stroke="white" stroke-width="2" stroke-linecap="round" stroke-linejoin="round"/>
<path d="M254.86 60.84C254.86 59.2439 253.566 57.95 251.97 57.95C250.374 57.95 249.08 59.2439 249.08 60.84V73.39C249.08 74.9861 250.374 76.28 251.97 76.28C253.566 76.28 254.86 74.9861 254.86 73.39V60.84Z" stroke="white" stroke-width="2" stroke-linecap="round" stroke-linejoin="round"/>
<path d="M273.82 33.9C273.82 30.5697 271.12 27.87 267.79 27.87C264.459 27.87 261.76 30.5697 261.76 33.9V36.66C261.76 39.9903 264.459 42.69 267.79 42.69C271.12 42.69 273.82 39.9903 273.82 36.66V33.9Z" fill="white" stroke="white" stroke-width="2" stroke-linecap="round" stroke-linejoin="round"/>
<path d="M245.94 28.26V36.66C245.94 38.2513 246.573 39.7774 247.698 40.9026C248.823 42.0279 250.349 42.66 251.94 42.66V27.91" fill="#2A78E7"/>
<path d="M245.94 28.26V36.66C245.94 38.2513 246.573 39.7774 247.698 40.9026C248.823 42.0279 250.349 42.66 251.94 42.66V27.91" stroke="white" stroke-width="2" stroke-linecap="round" stroke-linejoin="round"/>
<path d="M251.96 27.91V42.73C253.551 42.73 255.077 42.0979 256.203 40.9726C257.328 39.8474 257.96 38.3213 257.96 36.73V28.33" fill="#2A78E7"/>
<path d="M251.96 27.91V42.73C253.551 42.73 255.077 42.0979 256.203 40.9726C257.328 39.8474 257.96 38.3213 257.96 36.73V28.33" stroke="white" stroke-width="2" stroke-linecap="round" stroke-linejoin="round"/>
<path d="M251.97 44.1V51.38" stroke="white" stroke-width="2" stroke-linecap="round" stroke-linejoin="round"/>
<path d="M270.68 54.42C270.68 52.8239 269.387 51.53 267.79 51.53C266.194 51.53 264.9 52.8239 264.9 54.42V66.97C264.9 68.5661 266.194 69.86 267.79 69.86C269.387 69.86 270.68 68.5661 270.68 66.97V54.42Z" fill="white" stroke="white" stroke-width="2" stroke-linecap="round" stroke-linejoin="round"/>
<path d="M270.68 60.84C270.68 59.2439 269.387 57.95 267.79 57.95C266.194 57.95 264.9 59.2439 264.9 60.84V73.39C264.9 74.9861 266.194 76.28 267.79 76.28C269.387 76.28 270.68 74.9861 270.68 73.39V60.84Z" stroke="white" stroke-width="2" stroke-linecap="round" stroke-linejoin="round"/>
<path d="M267.79 44.1V51.38" stroke="white" stroke-width="2" stroke-linecap="round" stroke-linejoin="round"/>
<path d="M264.362 134.036L240.652 157.745C236.794 161.603 236.794 167.859 240.652 171.718C244.511 175.576 250.766 175.576 254.625 171.718L278.334 148.008C282.192 144.15 282.192 137.894 278.334 134.036C274.476 130.177 268.22 130.177 264.362 134.036Z" stroke="white" stroke-width="2" stroke-linecap="round" stroke-linejoin="round"/>
<path d="M261.413 145.47L252.093 154.789C250.574 156.309 250.573 158.77 252.09 160.287C253.607 161.804 256.069 161.803 257.588 160.284L266.907 150.964C268.426 149.445 268.428 146.983 266.911 145.466C265.394 143.949 262.932 143.951 261.413 145.47Z" stroke="#2A78E7" stroke-width="2" stroke-linecap="round" stroke-linejoin="round"/>
<path d="M255.388 134.182C251.53 130.323 245.274 130.323 241.416 134.182C237.558 138.04 237.558 144.296 241.416 148.154L265.125 171.863C268.984 175.722 275.239 175.722 279.098 171.863C282.956 168.005 282.956 161.749 279.098 157.891L255.388 134.182Z" fill="white" stroke="#2A78E7" stroke-width="2" stroke-miterlimit="10"/>
<path d="M258.344 145.623C256.824 144.103 254.363 144.102 252.846 145.619C251.329 147.136 251.33 149.598 252.849 151.117L262.169 160.436C263.688 161.956 266.15 161.957 267.667 160.44C269.184 158.923 269.182 156.461 267.663 154.942L258.344 145.623Z" fill="white" stroke="#2A78E7" stroke-width="2" stroke-miterlimit="10"/>
<path d="M269.04 166.92C269.758 166.92 270.34 166.338 270.34 165.62C270.34 164.902 269.758 164.32 269.04 164.32C268.322 164.32 267.74 164.902 267.74 165.62C267.74 166.338 268.322 166.92 269.04 166.92Z" fill="#2A78E7"/>
<path d="M272.85 163.11C273.568 163.11 274.15 162.528 274.15 161.81C274.15 161.092 273.568 160.51 272.85 160.51C272.132 160.51 271.55 161.092 271.55 161.81C271.55 162.528 272.132 163.11 272.85 163.11Z" fill="#2A78E7"/>
<path d="M272.71 170.59C273.428 170.59 274.01 170.008 274.01 169.29C274.01 168.572 273.428 167.99 272.71 167.99C271.992 167.99 271.41 168.572 271.41 169.29C271.41 170.008 271.992 170.59 272.71 170.59Z" fill="#2A78E7"/>
<path d="M276.52 166.78C277.238 166.78 277.82 166.198 277.82 165.48C277.82 164.762 277.238 164.18 276.52 164.18C275.802 164.18 275.22 164.762 275.22 165.48C275.22 166.198 275.802 166.78 276.52 166.78Z" fill="#2A78E7"/>
<path d="M243.99 141.87C244.708 141.87 245.29 141.288 245.29 140.57C245.29 139.852 244.708 139.27 243.99 139.27C243.272 139.27 242.69 139.852 242.69 140.57C242.69 141.288 243.272 141.87 243.99 141.87Z" fill="#2A78E7"/>
<path d="M247.8 138.06C248.518 138.06 249.1 137.478 249.1 136.76C249.1 136.042 248.518 135.46 247.8 135.46C247.082 135.46 246.5 136.042 246.5 136.76C246.5 137.478 247.082 138.06 247.8 138.06Z" fill="#2A78E7"/>
<path d="M247.66 145.54C248.378 145.54 248.96 144.958 248.96 144.24C248.96 143.522 248.378 142.94 247.66 142.94C246.942 142.94 246.36 143.522 246.36 144.24C246.36 144.958 246.942 145.54 247.66 145.54Z" fill="#2A78E7"/>
<path d="M251.47 141.73C252.188 141.73 252.77 141.148 252.77 140.43C252.77 139.712 252.188 139.13 251.47 139.13C250.752 139.13 250.17 139.712 250.17 140.43C250.17 141.148 250.752 141.73 251.47 141.73Z" fill="#2A78E7"/>
<path d="M68.0999 166.66H32.6699V169H68.0999V166.66Z" fill="white" stroke="#2A78E7" stroke-width="2" stroke-linecap="round" stroke-linejoin="round"/>
</g>
<defs>
<clipPath id="clip0_1464_328">
<rect width="308" height="201.82" fill="white"/>
</clipPath>
</defs>
</svg>
